solid hobber 3
facet normal 0.0 -1.0 -6.65641845951462e-016
outer loop
vertex 19.0660021433801 47.8520116705592 29.4
vertex 10.9297491395177 47.8520116705592 3.19999999999998
vertex 19.0660021433802 47.8520116705592 3.19999999999998
endloop
endfacet
facet normal 0.0 -1.0 -6.65641845951462e-016
outer loop
vertex 10.9297491395177 47.8520116705592 3.19999999999998
vertex 19.0660021433801 47.8520116705592 29.4
vertex 10.9297491395177 47.8520116705592 29.4
endloop
endfacet
facet normal 0.0 0.0 1.0
outer loop
vertex 45.1364465713171 23.1729804852106 32.1
vertex 35.0700172702414 27.9729804852106 32.1
vertex 35.0700172702414 23.1729804852106 32.1
endloop
endfacet
facet normal 0.0 0.0 1.0
outer loop
vertex 35.0700172702414 27.9729804852106 32.1
vertex 45.1364465713171 23.1729804852106 32.1
vertex 45.1364465713171 27.9729804852106 32.1
endloop
endfacet
facet normal 0.0 -1.0 0.0
outer loop
vertex 43.1384023132564 21.1586281762428 34.6
vertex 37.0384023132566 21.1586281762428 3.19999999999996
vertex 43.1384023132564 21.1586281762428 3.19999999999996
endloop
endfacet
facet normal 0.0 -1.0 0.0
outer loop
vertex 37.0384023132566 21.1586281762428 3.19999999999996
vertex 43.1384023132564 21.1586281762428 34.6
vertex 37.0384023132566 21.1586281762428 34.6
endloop
endfacet
facet normal 0.0 1.0 0.0
outer loop
vertex 26.0700172702415 18.4328838285911 29.4
vertex 35.0700172702414 18.4328838285911 27.9
vertex 26.0700172702415 18.4328838285911 27.9
endloop
endfacet
facet normal 0.0 1.0 0.0
outer loop
vertex 35.0700172702414 18.4328838285911 27.9
vertex 26.0700172702415 18.4328838285911 29.4
vertex 35.0700172702414 18.4328838285911 29.4
endloop
endfacet
facet normal 0.110584502933398 4.16294991650354e-015 0.993866725326376
outer loop
vertex 39.627890257929 -0.136987045978456 4.96276420765751
vertex 30.327890257929 7.86301295402154 5.99754669013054
vertex 30.327890257929 -0.136987045978456 5.99754669013057
endloop
endfacet
facet normal 0.110584502933398 4.16294991650354e-015 0.993866725326376
outer loop
vertex 30.327890257929 7.86301295402154 5.99754669013054
vertex 39.627890257929 -0.136987045978456 4.96276420765751
vertex 39.627890257929 7.86301295402154 4.96276420765747
endloop
endfacet
facet normal -0.993866725326376 3.8980573970175e-016 0.110584502933397
outer loop
vertex 30.7149360181958 -2.13698704597844 9.47608022877288
vertex 30.327890257929 -0.136987045978456 5.99754669013057
vertex 30.327890257929 -2.13698704597846 5.99754669013058
endloop
endfacet
facet normal -0.993866725326376 3.8980573970175e-016 0.110584502933397
outer loop
vertex 30.327890257929 -0.136987045978456 5.99754669013057
vertex 30.7149360181958 -2.13698704597844 9.47608022877288
vertex 30.7149360181958 -0.136987045978441 9.47608022877287
endloop
endfacet
facet normal -5.01260595410773e-016 1.0 -4.16438024414846e-015
outer loop
vertex 30.327890257929 -0.136987045978456 5.99754669013057
vertex 40.0149360181958 -0.136987045978441 8.44129774629982
vertex 39.627890257929 -0.136987045978456 4.96276420765751
endloop
endfacet
facet normal -5.01260595410773e-016 1.0 -4.16438024414846e-015
outer loop
vertex 40.0149360181958 -0.136987045978441 8.44129774629982
vertex 30.327890257929 -0.136987045978456 5.99754669013057
vertex 30.7149360181958 -0.136987045978441 9.47608022877287
endloop
endfacet
facet normal 0.0 0.0 -1.0
outer loop
vertex 35.0700172702414 18.4328838285911 27.9
vertex 26.0700172702415 7.86301295402162 27.9
vertex 26.0700172702415 18.4328838285911 27.9
endloop
endfacet
facet normal 0.0 0.0 -1.0
outer loop
vertex 26.0700172702415 7.86301295402162 27.9
vertex 35.0700172702414 18.4328838285911 27.9
vertex 35.0700172702414 7.86301295402162 27.9
endloop
endfacet
facet normal -0.515466702409534 -1.77799807018599e-032 -0.856909609414576
outer loop
vertex 37.6088546375293 49.8630129540215 32.2460649328335
vertex 35.0810638838327 41.8630129540215 33.7666360057609
vertex 35.0810638838327 49.8630129540215 33.7666360057609
endloop
endfacet
facet normal -0.515466702409534 -1.77799807018599e-032 -0.856909609414576
outer loop
vertex 35.0810638838327 41.8630129540215 33.7666360057609
vertex 37.6088546375293 49.8630129540215 32.2460649328335
vertex 37.6088546375293 41.8630129540215 32.2460649328335
endloop
endfacet
facet normal 0.382683432365072 0.0 0.923879532511294
outer loop
vertex 29.4053315672801 7.86301295402155 19.0594457442465
vertex 28.3200172702414 41.8630129540215 19.5089976455173
vertex 28.3200172702414 7.86301295402155 19.5089976455173
endloop
endfacet
facet normal 0.382683432365072 0.0 0.923879532511294
outer loop
vertex 28.3200172702414 41.8630129540215 19.5089976455173
vertex 29.4053315672801 7.86301295402155 19.0594457442465
vertex 29.4053315672801 41.8630129540215 19.0594457442465
endloop
endfacet
facet normal 0.0 0.0 1.0
outer loop
vertex 8.93644657131743 7.86301295402155 29.4
vertex 10.9297491395177 9.90616309027909 29.4
vertex 8.93644657131743 49.8630129540215 29.4
endloop
endfacet
facet normal 0.0 0.0 1.0
outer loop
vertex 10.9297491395177 9.90616309027909 29.4
vertex 8.93644657131743 7.86301295402155 29.4
vertex 35.0700172702414 7.86301295402162 29.4
endloop
endfacet
facet normal 0.0 0.0 1.0
outer loop
vertex 10.9297491395177 9.90616309027909 29.4
vertex 35.0700172702414 7.86301295402162 29.4
vertex 24.1297491395179 9.90616309027909 29.4
endloop
endfacet
facet normal 0.0 0.0 1.0
outer loop
vertex 24.1297491395179 9.90616309027909 29.4
vertex 35.0700172702414 7.86301295402162 29.4
vertex 26.0700172702415 18.4328838285911 29.4
endloop
endfacet
facet normal 0.0 0.0 1.0
outer loop
vertex 24.1297491395179 9.90616309027909 29.4
vertex 26.0700172702415 18.4328838285911 29.4
vertex 24.1297491395179 39.8435466295285 29.4
endloop
endfacet
facet normal 0.0 0.0 1.0
outer loop
vertex 26.0700172702415 18.4328838285911 29.4
vertex 35.0700172702414 7.86301295402162 29.4
vertex 35.0700172702414 18.4328838285911 29.4
endloop
endfacet
facet normal 0.0 0.0 1.0
outer loop
vertex 19.0660021433801 39.8435466295285 29.4
vertex 21.1014838997387 41.8630129540215 29.4
vertex 19.0660021433801 47.8520116705592 29.4
endloop
endfacet
facet normal 0.0 0.0 1.0
outer loop
vertex 21.1014838997387 41.8630129540215 29.4
vertex 19.0660021433801 39.8435466295285 29.4
vertex 24.1297491395179 39.8435466295285 29.4
endloop
endfacet
facet normal 0.0 0.0 1.0
outer loop
vertex 21.1014838997387 41.8630129540215 29.4
vertex 24.1297491395179 39.8435466295285 29.4
vertex 26.0700172702415 41.8630129540215 29.4
endloop
endfacet
facet normal 0.0 0.0 1.0
outer loop
vertex 26.0700172702415 41.8630129540215 29.4
vertex 24.1297491395179 39.8435466295285 29.4
vertex 26.0700172702415 18.4328838285911 29.4
endloop
endfacet
facet normal 0.0 0.0 1.0
outer loop
vertex 8.93644657131743 49.8630129540215 29.4
vertex 10.9297491395177 47.8520116705592 29.4
vertex 21.1014838997387 49.8630129540215 29.4
endloop
endfacet
facet normal 0.0 0.0 1.0
outer loop
vertex 10.9297491395177 47.8520116705592 29.4
vertex 8.93644657131743 49.8630129540215 29.4
vertex 10.9297491395177 9.90616309027909 29.4
endloop
endfacet
facet normal 0.0 0.0 1.0
outer loop
vertex 21.1014838997387 49.8630129540215 29.4
vertex 10.9297491395177 47.8520116705592 29.4
vertex 19.0660021433801 47.8520116705592 29.4
endloop
endfacet
facet normal 0.0 0.0 1.0
outer loop
vertex 21.1014838997387 49.8630129540215 29.4
vertex 19.0660021433801 47.8520116705592 29.4
vertex 21.1014838997387 41.8630129540215 29.4
endloop
endfacet
facet normal 0.515466702409534 1.77799807018599e-032 0.856909609414576
outer loop
vertex 26.0589706566502 41.8630129540215 13.0455879193337
vertex 23.5311799029536 49.8630129540215 14.5661589922611
vertex 23.5311799029536 41.8630129540215 14.5661589922611
endloop
endfacet
facet normal 0.515466702409534 1.77799807018599e-032 0.856909609414576
outer loop
vertex 23.5311799029536 49.8630129540215 14.5661589922611
vertex 26.0589706566502 41.8630129540215 13.0455879193337
vertex 26.0589706566502 49.8630129540215 13.0455879193337
endloop
endfacet
facet normal 1.36747061042627e-016 -2.17290526127486e-016 -1.0
outer loop
vertex 45.1364465713171 49.8630129540215 3.06521751752693
vertex 8.93644657131743 7.86301295402152 3.06521751752693
vertex 8.93644657131743 49.8630129540215 3.06521751752693
endloop
endfacet
facet normal 1.36747061042627e-016 -2.17290526127486e-016 -1.0
outer loop
vertex 8.93644657131743 7.86301295402152 3.06521751752693
vertex 45.1364465713171 49.8630129540215 3.06521751752693
vertex 9.77197712410297 7.86301295402155 3.06521751752693
endloop
endfacet
facet normal 1.36747061042627e-016 -2.17290526127486e-016 -1.0
outer loop
vertex 9.77197712410297 7.86301295402155 3.06521751752693
vertex 45.1364465713171 49.8630129540215 3.06521751752693
vertex 11.671977124103 7.86301295402154 3.06521751752693
endloop
endfacet
facet normal 1.36747061042627e-016 -2.17290526127486e-016 -1.0
outer loop
vertex 11.671977124103 7.86301295402154 3.06521751752693
vertex 45.1364465713171 49.8630129540215 3.06521751752693
vertex 30.2836564567557 7.86301295402153 3.06521751752693
endloop
endfacet
facet normal 1.36747061042627e-016 -2.17290526127486e-016 -1.0
outer loop
vertex 30.2836564567557 7.86301295402153 3.06521751752693
vertex 45.1364465713171 49.8630129540215 3.06521751752693
vertex 30.2836564567557 -2.13698704597846 3.06521751752695
endloop
endfacet
facet normal 1.36747061042627e-016 -2.17290526127486e-016 -1.0
outer loop
vertex 30.2836564567557 -2.13698704597846 3.06521751752695
vertex 45.1364465713171 49.8630129540215 3.06521751752693
vertex 39.5836564567557 7.86301295402152 3.06521751752694
endloop
endfacet
facet normal 1.36747061042627e-016 -2.17290526127486e-016 -1.0
outer loop
vertex 39.5836564567557 7.86301295402152 3.06521751752694
vertex 45.1364465713171 49.8630129540215 3.06521751752693
vertex 45.1364465713171 7.86301295402152 3.06521751752693
endloop
endfacet
facet normal 1.36747061042627e-016 -2.17290526127486e-016 -1.0
outer loop
vertex 39.5836564567557 -2.13698704597848 3.06521751752696
vertex 30.2836564567557 -2.13698704597846 3.06521751752695
vertex 39.5836564567557 7.86301295402152 3.06521751752694
endloop
endfacet
facet normal 0.0 1.0 0.0
outer loop
vertex 35.0700172702414 23.1729804852106 34.6
vertex 45.1364465713171 23.1729804852106 32.1
vertex 35.0700172702414 23.1729804852106 32.1
endloop
endfacet
facet normal 0.0 1.0 0.0
outer loop
vertex 45.1364465713171 23.1729804852106 32.1
vertex 35.0700172702414 23.1729804852106 34.6
vertex 45.1364465713171 23.1729804852106 34.6
endloop
endfacet
facet normal 1.0 -5.01629940279961e-016 7.26518082335813e-016
outer loop
vertex 10.9297491395177 47.8520116705592 3.19999999999998
vertex 10.9297491395177 9.90616309027909 29.4
vertex 10.9297491395177 9.90616309027909 3.19999999999996
endloop
endfacet
facet normal 1.0 -5.01629940279961e-016 7.26518082335813e-016
outer loop
vertex 10.9297491395177 9.90616309027909 29.4
vertex 10.9297491395177 47.8520116705592 3.19999999999998
vertex 10.9297491395177 47.8520116705592 29.4
endloop
endfacet
facet normal -1.14529746244502e-016 -3.73770901952024e-016 1.0
outer loop
vertex 24.1297491395179 9.90616309027909 3.19999999999996
vertex 10.9297491395177 47.8520116705592 3.19999999999998
vertex 10.9297491395177 9.90616309027909 3.19999999999996
endloop
endfacet
facet normal -1.14529746244502e-016 -3.73770901952024e-016 1.0
outer loop
vertex 10.9297491395177 47.8520116705592 3.19999999999998
vertex 24.1297491395179 9.90616309027909 3.19999999999996
vertex 19.0660021433801 39.8435466295285 3.19999999999998
endloop
endfacet
facet normal -1.14529746244502e-016 -3.73770901952024e-016 1.0
outer loop
vertex 19.0660021433801 39.8435466295285 3.19999999999998
vertex 24.1297491395179 9.90616309027909 3.19999999999996
vertex 24.1297491395179 39.8435466295285 3.19999999999998
endloop
endfacet
facet normal -1.14529746244502e-016 -3.73770901952024e-016 1.0
outer loop
vertex 19.0660021433802 47.8520116705592 3.19999999999998
vertex 10.9297491395177 47.8520116705592 3.19999999999998
vertex 19.0660021433801 39.8435466295285 3.19999999999998
endloop
endfacet
facet normal 0.0 0.0 1.0
outer loop
vertex 45.1364465713171 27.9729804852106 34.6
vertex 35.0700172702414 49.8630129540215 34.6
vertex 35.0700172702414 27.9729804852106 34.6
endloop
endfacet
facet normal 0.0 0.0 1.0
outer loop
vertex 35.0700172702414 49.8630129540215 34.6
vertex 45.1364465713171 27.9729804852106 34.6
vertex 45.1364465713171 49.8630129540215 34.6
endloop
endfacet
facet normal -2.28925454288763e-016 -1.0 1.70041825833318e-015
outer loop
vertex 45.1364465713171 7.86301295402155 34.6
vertex 39.5836564567557 7.86301295402152 3.06521751752694
vertex 45.1364465713171 7.86301295402152 3.06521751752693
endloop
endfacet
facet normal -2.28925454288763e-016 -1.0 1.70041825833318e-015
outer loop
vertex 39.5836564567557 7.86301295402152 3.06521751752694
vertex 45.1364465713171 7.86301295402155 34.6
vertex 39.5836564567557 7.86301295402152 4.56521751752694
endloop
endfacet
facet normal -2.28925454288763e-016 -1.0 1.70041825833318e-015
outer loop
vertex 39.5836564567557 7.86301295402152 4.56521751752694
vertex 45.1364465713171 7.86301295402155 34.6
vertex 39.627890257929 7.86301295402154 4.96276420765747
endloop
endfacet
facet normal -2.28925454288763e-016 -1.0 1.70041825833318e-015
outer loop
vertex 39.627890257929 7.86301295402154 4.96276420765747
vertex 45.1364465713171 7.86301295402155 34.6
vertex 30.327890257929 7.86301295402154 5.99754669013054
endloop
endfacet
facet normal -2.28925454288763e-016 -1.0 1.70041825833318e-015
outer loop
vertex 30.327890257929 7.86301295402154 5.99754669013054
vertex 45.1364465713171 7.86301295402155 34.6
vertex 33.7519977855809 7.86301295402155 20.2241314472079
endloop
endfacet
facet normal -2.28925454288763e-016 -1.0 1.70041825833318e-015
outer loop
vertex 30.327890257929 7.86301295402154 5.99754669013054
vertex 33.7519977855809 7.86301295402155 20.2241314472079
vertex 32.8200172702415 7.86301295402155 19.5089976455173
endloop
endfacet
facet normal -2.28925454288763e-016 -1.0 1.70041825833318e-015
outer loop
vertex 30.327890257929 7.86301295402154 5.99754669013054
vertex 32.8200172702415 7.86301295402155 19.5089976455173
vertex 31.7347029732028 7.86301295402155 19.0594457442465
endloop
endfacet
facet normal -2.28925454288763e-016 -1.0 1.70041825833318e-015
outer loop
vertex 30.327890257929 7.86301295402154 5.99754669013054
vertex 31.7347029732028 7.86301295402155 19.0594457442465
vertex 30.5700172702414 7.86301295402155 18.9061119625473
endloop
endfacet
facet normal -2.28925454288763e-016 -1.0 1.70041825833318e-015
outer loop
vertex 33.7519977855809 7.86301295402155 20.2241314472079
vertex 45.1364465713171 7.86301295402155 34.6
vertex 34.4671315872715 7.86301295402155 21.1561119625473
endloop
endfacet
facet normal -2.28925454288763e-016 -1.0 1.70041825833318e-015
outer loop
vertex 34.4671315872715 7.86301295402155 21.1561119625473
vertex 45.1364465713171 7.86301295402155 34.6
vertex 34.9166834885422 7.86301295402155 22.241426259586
endloop
endfacet
facet normal -2.28925454288763e-016 -1.0 1.70041825833318e-015
outer loop
vertex 34.9166834885422 7.86301295402155 22.241426259586
vertex 45.1364465713171 7.86301295402155 34.6
vertex 35.0700172702414 7.86301295402162 23.4061119625473
endloop
endfacet
facet normal -2.28925454288763e-016 -1.0 1.70041825833318e-015
outer loop
vertex 35.0700172702414 7.86301295402162 23.4061119625473
vertex 45.1364465713171 7.86301295402155 34.6
vertex 35.0700172702414 7.86301295402162 27.9
endloop
endfacet
facet normal -2.28925454288763e-016 -1.0 1.70041825833318e-015
outer loop
vertex 35.0700172702414 7.86301295402162 27.9
vertex 45.1364465713171 7.86301295402155 34.6
vertex 35.0700172702414 7.86301295402162 29.4
endloop
endfacet
facet normal -2.28925454288763e-016 -1.0 1.70041825833318e-015
outer loop
vertex 35.0700172702414 7.86301295402162 27.9
vertex 35.0700172702414 7.86301295402162 29.4
vertex 26.0700172702415 7.86301295402162 27.9
endloop
endfacet
facet normal -2.28925454288763e-016 -1.0 1.70041825833318e-015
outer loop
vertex 35.0700172702414 7.86301295402162 29.4
vertex 45.1364465713171 7.86301295402155 34.6
vertex 35.0700172702414 7.86301295402162 34.6
endloop
endfacet
facet normal -2.28925454288763e-016 -1.0 1.70041825833318e-015
outer loop
vertex 30.327890257929 7.86301295402154 5.99754669013054
vertex 11.671977124103 7.86301295402154 3.06521751752693
vertex 30.2836564567557 7.86301295402153 3.06521751752693
endloop
endfacet
facet normal -2.28925454288763e-016 -1.0 1.70041825833318e-015
outer loop
vertex 11.671977124103 7.86301295402154 3.06521751752693
vertex 30.327890257929 7.86301295402154 5.99754669013054
vertex 9.77197712410297 7.86301295402155 3.06521751752693
endloop
endfacet
facet normal -2.28925454288763e-016 -1.0 1.70041825833318e-015
outer loop
vertex 9.77197712410297 7.86301295402155 3.06521751752693
vertex 30.327890257929 7.86301295402154 5.99754669013054
vertex 8.93644657131743 7.86301295402152 3.06521751752693
endloop
endfacet
facet normal -2.28925454288763e-016 -1.0 1.70041825833318e-015
outer loop
vertex 8.93644657131743 7.86301295402152 3.06521751752693
vertex 30.327890257929 7.86301295402154 5.99754669013054
vertex 8.93644657131743 7.86301295402155 29.4
endloop
endfacet
facet normal -2.28925454288763e-016 -1.0 1.70041825833318e-015
outer loop
vertex 8.93644657131743 7.86301295402155 29.4
vertex 30.327890257929 7.86301295402154 5.99754669013054
vertex 28.3200172702414 7.86301295402155 19.5089976455173
endloop
endfacet
facet normal -2.28925454288763e-016 -1.0 1.70041825833318e-015
outer loop
vertex 28.3200172702414 7.86301295402155 19.5089976455173
vertex 30.327890257929 7.86301295402154 5.99754669013054
vertex 29.4053315672801 7.86301295402155 19.0594457442465
endloop
endfacet
facet normal -2.28925454288763e-016 -1.0 1.70041825833318e-015
outer loop
vertex 29.4053315672801 7.86301295402155 19.0594457442465
vertex 30.327890257929 7.86301295402154 5.99754669013054
vertex 30.5700172702414 7.86301295402155 18.9061119625473
endloop
endfacet
facet normal -2.28925454288763e-016 -1.0 1.70041825833318e-015
outer loop
vertex 8.93644657131743 7.86301295402155 29.4
vertex 28.3200172702414 7.86301295402155 19.5089976455173
vertex 27.3880367549019 7.86301295402155 20.2241314472079
endloop
endfacet
facet normal -2.28925454288763e-016 -1.0 1.70041825833318e-015
outer loop
vertex 8.93644657131743 7.86301295402155 29.4
vertex 27.3880367549019 7.86301295402155 20.2241314472079
vertex 26.6729029532115 7.86301295402155 21.1561119625473
endloop
endfacet
facet normal -2.28925454288763e-016 -1.0 1.70041825833318e-015
outer loop
vertex 8.93644657131743 7.86301295402155 29.4
vertex 26.6729029532115 7.86301295402155 21.1561119625473
vertex 26.2233510519406 7.86301295402155 22.241426259586
endloop
endfacet
facet normal -2.28925454288763e-016 -1.0 1.70041825833318e-015
outer loop
vertex 8.93644657131743 7.86301295402155 29.4
vertex 26.2233510519406 7.86301295402155 22.241426259586
vertex 26.0700172702415 7.86301295402162 23.4061119625473
endloop
endfacet
facet normal -2.28925454288763e-016 -1.0 1.70041825833318e-015
outer loop
vertex 8.93644657131743 7.86301295402155 29.4
vertex 26.0700172702415 7.86301295402162 23.4061119625473
vertex 26.0700172702415 7.86301295402162 27.9
endloop
endfacet
facet normal -2.28925454288763e-016 -1.0 1.70041825833318e-015
outer loop
vertex 8.93644657131743 7.86301295402155 29.4
vertex 26.0700172702415 7.86301295402162 27.9
vertex 35.0700172702414 7.86301295402162 29.4
endloop
endfacet
facet normal 1.0 0.0 0.0
outer loop
vertex 39.5836564567557 7.86301295402152 3.06521751752694
vertex 39.5836564567557 -2.13698704597848 4.56521751752697
vertex 39.5836564567557 -2.13698704597848 3.06521751752696
endloop
endfacet
facet normal 1.0 0.0 0.0
outer loop
vertex 39.5836564567557 -2.13698704597848 4.56521751752697
vertex 39.5836564567557 7.86301295402152 3.06521751752694
vertex 39.5836564567557 7.86301295402152 4.56521751752694
endloop
endfacet
facet normal -1.0 2.26673303329918e-015 -7.53426159459361e-016
outer loop
vertex 19.0660021433801 47.8520116705592 29.4
vertex 19.0660021433801 39.8435466295285 3.19999999999998
vertex 19.0660021433801 39.8435466295285 29.4
endloop
endfacet
facet normal -1.0 2.26673303329918e-015 -7.53426159459361e-016
outer loop
vertex 19.0660021433801 39.8435466295285 3.19999999999998
vertex 19.0660021433801 47.8520116705592 29.4
vertex 19.0660021433802 47.8520116705592 3.19999999999998
endloop
endfacet
facet normal -0.608761429008731 -7.04671821210499e-019 0.793353340291227
outer loop
vertex 33.7519977855809 7.86301295402155 20.2241314472079
vertex 32.8200172702415 41.8630129540215 19.5089976455173
vertex 32.8200172702415 7.86301295402155 19.5089976455173
endloop
endfacet
facet normal -0.608761429008731 -7.04671821210499e-019 0.793353340291227
outer loop
vertex 32.8200172702415 41.8630129540215 19.5089976455173
vertex 33.7519977855809 7.86301295402155 20.2241314472079
vertex 33.7519977855809 41.8630129540215 20.2241314472079
endloop
endfacet
facet normal 0.793353340291267 0.0 0.608761429008679
outer loop
vertex 27.3880367549019 41.8630129540215 20.2241314472079
vertex 26.6729029532115 7.86301295402155 21.1561119625473
vertex 27.3880367549019 7.86301295402155 20.2241314472079
endloop
endfacet
facet normal 0.793353340291267 0.0 0.608761429008679
outer loop
vertex 26.6729029532115 7.86301295402155 21.1561119625473
vertex 27.3880367549019 41.8630129540215 20.2241314472079
vertex 26.6729029532115 41.8630129540215 21.1561119625473
endloop
endfacet
facet normal 0.923879532511272 0.0 0.382683432365125
outer loop
vertex 26.6729029532115 41.8630129540215 21.1561119625473
vertex 26.2233510519406 7.86301295402155 22.241426259586
vertex 26.6729029532115 7.86301295402155 21.1561119625473
endloop
endfacet
facet normal 0.923879532511272 0.0 0.382683432365125
outer loop
vertex 26.2233510519406 7.86301295402155 22.241426259586
vertex 26.6729029532115 41.8630129540215 21.1561119625473
vertex 26.2233510519406 41.8630129540215 22.241426259586
endloop
endfacet
facet normal 0.991444861373814 -4.00724639795536e-020 0.130526192220024
outer loop
vertex 26.2233510519406 41.8630129540215 22.241426259586
vertex 26.0700172702415 7.86301295402162 23.4061119625473
vertex 26.2233510519406 7.86301295402155 22.241426259586
endloop
endfacet
facet normal 0.991444861373814 -4.00724639795536e-020 0.130526192220024
outer loop
vertex 26.0700172702415 7.86301295402162 23.4061119625473
vertex 26.2233510519406 41.8630129540215 22.241426259586
vertex 26.0700172702415 41.8630129540215 23.4061119625473
endloop
endfacet
facet normal -1.17106125549278e-031 1.0 4.96952387966288e-032
outer loop
vertex 8.93644657131743 49.8630129540215 3.06521751752693
vertex 26.0589706566502 49.8630129540215 13.0455879193337
vertex 45.1364465713171 49.8630129540215 3.06521751752693
endloop
endfacet
facet normal -1.17106125549278e-031 1.0 4.96952387966288e-032
outer loop
vertex 26.0589706566502 49.8630129540215 13.0455879193337
vertex 8.93644657131743 49.8630129540215 3.06521751752693
vertex 23.5311799029536 49.8630129540215 14.5661589922611
endloop
endfacet
facet normal -1.17106125549278e-031 1.0 4.96952387966288e-032
outer loop
vertex 23.5311799029536 49.8630129540215 14.5661589922611
vertex 8.93644657131743 49.8630129540215 3.06521751752693
vertex 8.93644657131743 49.8630129540215 29.4
endloop
endfacet
facet normal -1.17106125549278e-031 1.0 4.96952387966288e-032
outer loop
vertex 45.1364465713171 49.8630129540215 3.06521751752693
vertex 26.0589706566502 49.8630129540215 13.0455879193337
vertex 28.8941817822061 49.8630129540215 12.2310694383758
endloop
endfacet
facet normal -1.17106125549278e-031 1.0 4.96952387966288e-032
outer loop
vertex 45.1364465713171 49.8630129540215 3.06521751752693
vertex 28.8941817822061 49.8630129540215 12.2310694383758
vertex 31.8435983268225 49.8630129540215 12.1781116378093
endloop
endfacet
facet normal -1.17106125549278e-031 1.0 4.96952387966288e-032
outer loop
vertex 23.5311799029536 49.8630129540215 14.5661589922611
vertex 8.93644657131743 49.8630129540215 29.4
vertex 21.4830742836089 49.8630129540215 16.6891582514005
endloop
endfacet
facet normal -1.17106125549278e-031 1.0 4.96952387966288e-032
outer loop
vertex 21.4830742836089 49.8630129540215 16.6891582514005
vertex 8.93644657131743 49.8630129540215 29.4
vertex 20.0542288119199 49.8630129540215 19.2699068056637
endloop
endfacet
facet normal -1.17106125549278e-031 1.0 4.96952387966288e-032
outer loop
vertex 20.0542288119199 49.8630129540215 19.2699068056637
vertex 8.93644657131743 49.8630129540215 29.4
vertex 19.3420169455034 49.8630129540215 22.1325309059663
endloop
endfacet
facet normal -1.17106125549278e-031 1.0 4.96952387966288e-032
outer loop
vertex 19.3420169455034 49.8630129540215 22.1325309059663
vertex 8.93644657131743 49.8630129540215 29.4
vertex 19.3949747460699 49.8630129540215 25.0819474505827
endloop
endfacet
facet normal -1.17106125549278e-031 1.0 4.96952387966288e-032
outer loop
vertex 19.3949747460699 49.8630129540215 25.0819474505827
vertex 8.93644657131743 49.8630129540215 29.4
vertex 20.2094932270279 49.8630129540215 27.9171585761386
endloop
endfacet
facet normal -1.17106125549278e-031 1.0 4.96952387966288e-032
outer loop
vertex 20.2094932270279 49.8630129540215 27.9171585761386
vertex 8.93644657131743 49.8630129540215 29.4
vertex 21.1014838997387 49.8630129540215 29.4
endloop
endfacet
facet normal -1.17106125549278e-031 1.0 4.96952387966288e-032
outer loop
vertex 45.1364465713171 49.8630129540215 3.06521751752693
vertex 41.7450597944129 49.8630129540215 21.730276474512
vertex 45.1364465713171 49.8630129540215 34.6
endloop
endfacet
facet normal -1.17106125549278e-031 1.0 4.96952387966288e-032
outer loop
vertex 41.7450597944129 49.8630129540215 21.730276474512
vertex 45.1364465713171 49.8630129540215 3.06521751752693
vertex 40.930541313455 49.8630129540215 18.8950653489561
endloop
endfacet
facet normal -1.17106125549278e-031 1.0 4.96952387966288e-032
outer loop
vertex 40.930541313455 49.8630129540215 18.8950653489561
vertex 45.1364465713171 49.8630129540215 3.06521751752693
vertex 39.4099702405276 49.8630129540215 16.3672745952595
endloop
endfacet
facet normal -1.17106125549278e-031 1.0 4.96952387966288e-032
outer loop
vertex 39.4099702405276 49.8630129540215 16.3672745952595
vertex 45.1364465713171 49.8630129540215 3.06521751752693
vertex 37.2869709813883 49.8630129540215 14.3191689759148
endloop
endfacet
facet normal -1.17106125549278e-031 1.0 4.96952387966288e-032
outer loop
vertex 37.2869709813883 49.8630129540215 14.3191689759148
vertex 45.1364465713171 49.8630129540215 3.06521751752693
vertex 34.7062224271251 49.8630129540215 12.8903235042258
endloop
endfacet
facet normal -1.17106125549278e-031 1.0 4.96952387966288e-032
outer loop
vertex 34.7062224271251 49.8630129540215 12.8903235042258
vertex 45.1364465713171 49.8630129540215 3.06521751752693
vertex 31.8435983268225 49.8630129540215 12.1781116378093
endloop
endfacet
facet normal -1.17106125549278e-031 1.0 4.96952387966288e-032
outer loop
vertex 45.1364465713171 49.8630129540215 34.6
vertex 41.7450597944129 49.8630129540215 21.730276474512
vertex 41.7980175949795 49.8630129540215 24.6796930191283
endloop
endfacet
facet normal -1.17106125549278e-031 1.0 4.96952387966288e-032
outer loop
vertex 45.1364465713171 49.8630129540215 34.6
vertex 41.7980175949795 49.8630129540215 24.6796930191283
vertex 41.085805728563 49.8630129540215 27.5423171194309
endloop
endfacet
facet normal -1.17106125549278e-031 1.0 4.96952387966288e-032
outer loop
vertex 45.1364465713171 49.8630129540215 34.6
vertex 41.085805728563 49.8630129540215 27.5423171194309
vertex 39.656960256874 49.8630129540215 30.1230656736941
endloop
endfacet
facet normal -1.17106125549278e-031 1.0 4.96952387966288e-032
outer loop
vertex 45.1364465713171 49.8630129540215 34.6
vertex 39.656960256874 49.8630129540215 30.1230656736941
vertex 37.6088546375293 49.8630129540215 32.2460649328335
endloop
endfacet
facet normal -1.17106125549278e-031 1.0 4.96952387966288e-032
outer loop
vertex 45.1364465713171 49.8630129540215 34.6
vertex 37.6088546375293 49.8630129540215 32.2460649328335
vertex 35.0810638838327 49.8630129540215 33.7666360057609
endloop
endfacet
facet normal -1.17106125549278e-031 1.0 4.96952387966288e-032
outer loop
vertex 45.1364465713171 49.8630129540215 34.6
vertex 35.0810638838327 49.8630129540215 33.7666360057609
vertex 35.0700172702414 49.8630129540215 34.6
endloop
endfacet
facet normal -0.719687127297285 -4.97764401973394e-032 -0.694298522829037
outer loop
vertex 37.6088546375293 49.8630129540215 32.2460649328335
vertex 39.656960256874 41.8630129540215 30.1230656736941
vertex 37.6088546375293 41.8630129540215 32.2460649328335
endloop
endfacet
facet normal -0.719687127297285 -4.97764401973394e-032 -0.694298522829037
outer loop
vertex 39.656960256874 41.8630129540215 30.1230656736941
vertex 37.6088546375293 49.8630129540215 32.2460649328335
vertex 39.656960256874 49.8630129540215 30.1230656736941
endloop
endfacet
facet normal -0.874862063798938 -7.83807175528272e-032 -0.484372139295256
outer loop
vertex 39.656960256874 49.8630129540215 30.1230656736941
vertex 41.085805728563 41.8630129540215 27.5423171194309
vertex 39.656960256874 41.8630129540215 30.1230656736941
endloop
endfacet
facet normal -0.874862063798938 -7.83807175528272e-032 -0.484372139295256
outer loop
vertex 41.085805728563 41.8630129540215 27.5423171194309
vertex 39.656960256874 49.8630129540215 30.1230656736941
vertex 41.085805728563 49.8630129540215 27.5423171194309
endloop
endfacet
facet normal -0.970416596430612 -1.0164347853735e-031 -0.241436594931313
outer loop
vertex 41.085805728563 49.8630129540215 27.5423171194309
vertex 41.7980175949795 41.8630129540215 24.6796930191283
vertex 41.085805728563 41.8630129540215 27.5423171194309
endloop
endfacet
facet normal -0.970416596430612 -1.0164347853735e-031 -0.241436594931313
outer loop
vertex 41.7980175949795 41.8630129540215 24.6796930191283
vertex 41.085805728563 49.8630129540215 27.5423171194309
vertex 41.7980175949795 49.8630129540215 24.6796930191283
endloop
endfacet
facet normal -0.999838841704791 -1.17979404433342e-031 0.0179524543843615
outer loop
vertex 41.7980175949795 49.8630129540215 24.6796930191283
vertex 41.7450597944129 41.8630129540215 21.730276474512
vertex 41.7980175949795 41.8630129540215 24.6796930191283
endloop
endfacet
facet normal -0.999838841704791 -1.17979404433342e-031 0.0179524543843615
outer loop
vertex 41.7450597944129 41.8630129540215 21.730276474512
vertex 41.7980175949795 49.8630129540215 24.6796930191283
vertex 41.7450597944129 49.8630129540215 21.730276474512
endloop
endfacet
facet normal 0.856909609414576 1.25965605172439e-031 -0.515466702409534
outer loop
vertex 20.2094932270279 49.8630129540215 27.9171585761386
vertex 21.1014838997387 41.8630129540215 29.4
vertex 20.2094932270279 41.8630129540215 27.9171585761386
endloop
endfacet
facet normal 0.856909609414576 1.25965605172439e-031 -0.515466702409534
outer loop
vertex 21.1014838997387 41.8630129540215 29.4
vertex 20.2094932270279 49.8630129540215 27.9171585761386
vertex 21.1014838997387 49.8630129540215 29.4
endloop
endfacet
facet normal -0.961123722228598 -1.26275228887387e-031 0.276118073601577
outer loop
vertex 41.7450597944129 49.8630129540215 21.730276474512
vertex 40.930541313455 41.8630129540215 18.8950653489561
vertex 41.7450597944129 41.8630129540215 21.730276474512
endloop
endfacet
facet normal -0.961123722228598 -1.26275228887387e-031 0.276118073601577
outer loop
vertex 40.930541313455 41.8630129540215 18.8950653489561
vertex 41.7450597944129 49.8630129540215 21.730276474512
vertex 40.930541313455 49.8630129540215 18.8950653489561
endloop
endfacet
facet normal -0.856909609414577 -1.25965605172439e-031 0.515466702409533
outer loop
vertex 40.930541313455 49.8630129540215 18.8950653489561
vertex 39.4099702405276 41.8630129540215 16.3672745952595
vertex 40.930541313455 41.8630129540215 18.8950653489561
endloop
endfacet
facet normal -0.856909609414577 -1.25965605172439e-031 0.515466702409533
outer loop
vertex 39.4099702405276 41.8630129540215 16.3672745952595
vertex 40.930541313455 49.8630129540215 18.8950653489561
vertex 39.4099702405276 49.8630129540215 16.3672745952595
endloop
endfacet
facet normal -0.694298522829036 -1.17071633632994e-031 0.719687127297285
outer loop
vertex 39.4099702405276 41.8630129540215 16.3672745952595
vertex 37.2869709813883 49.8630129540215 14.3191689759148
vertex 37.2869709813883 41.8630129540215 14.3191689759148
endloop
endfacet
facet normal -0.694298522829036 -1.17071633632994e-031 0.719687127297285
outer loop
vertex 37.2869709813883 49.8630129540215 14.3191689759148
vertex 39.4099702405276 41.8630129540215 16.3672745952595
vertex 39.4099702405276 49.8630129540215 16.3672745952595
endloop
endfacet
facet normal -0.484372139295258 -1.00199423731483e-031 0.874862063798937
outer loop
vertex 37.2869709813883 41.8630129540215 14.3191689759148
vertex 34.7062224271251 49.8630129540215 12.8903235042258
vertex 34.7062224271251 41.8630129540215 12.8903235042258
endloop
endfacet
facet normal -0.484372139295258 -1.00199423731483e-031 0.874862063798937
outer loop
vertex 34.7062224271251 49.8630129540215 12.8903235042258
vertex 37.2869709813883 41.8630129540215 14.3191689759148
vertex 37.2869709813883 49.8630129540215 14.3191689759148
endloop
endfacet
facet normal -0.991444861373814 -4.00724639795536e-020 0.130526192220024
outer loop
vertex 35.0700172702414 7.86301295402162 23.4061119625473
vertex 34.9166834885422 41.8630129540215 22.241426259586
vertex 34.9166834885422 7.86301295402155 22.241426259586
endloop
endfacet
facet normal -0.991444861373814 -4.00724639795536e-020 0.130526192220024
outer loop
vertex 34.9166834885422 41.8630129540215 22.241426259586
vertex 35.0700172702414 7.86301295402162 23.4061119625473
vertex 35.0700172702414 41.8630129540215 23.4061119625473
endloop
endfacet
facet normal 0.999838841704791 1.17979404433342e-031 -0.0179524543843615
outer loop
vertex 19.3420169455034 49.8630129540215 22.1325309059663
vertex 19.3949747460699 41.8630129540215 25.0819474505827
vertex 19.3420169455034 41.8630129540215 22.1325309059663
endloop
endfacet
facet normal 0.999838841704791 1.17979404433342e-031 -0.0179524543843615
outer loop
vertex 19.3949747460699 41.8630129540215 25.0819474505827
vertex 19.3420169455034 49.8630129540215 22.1325309059663
vertex 19.3949747460699 49.8630129540215 25.0819474505827
endloop
endfacet
facet normal -0.241436594931313 -7.64987886900475e-032 0.970416596430612
outer loop
vertex 34.7062224271251 41.8630129540215 12.8903235042258
vertex 31.8435983268225 49.8630129540215 12.1781116378093
vertex 31.8435983268225 41.8630129540215 12.1781116378093
endloop
endfacet
facet normal -0.241436594931313 -7.64987886900475e-032 0.970416596430612
outer loop
vertex 31.8435983268225 49.8630129540215 12.1781116378093
vertex 34.7062224271251 41.8630129540215 12.8903235042258
vertex 34.7062224271251 49.8630129540215 12.8903235042258
endloop
endfacet
facet normal 0.0 -1.0 0.0
outer loop
vertex 24.1297491395179 39.8435466295285 29.4
vertex 19.0660021433801 39.8435466295285 3.19999999999998
vertex 24.1297491395179 39.8435466295285 3.19999999999998
endloop
endfacet
facet normal 0.0 -1.0 0.0
outer loop
vertex 19.0660021433801 39.8435466295285 3.19999999999998
vertex 24.1297491395179 39.8435466295285 29.4
vertex 19.0660021433801 39.8435466295285 29.4
endloop
endfacet
facet normal 0.110584502933397 4.19427061004928e-015 0.993866725326376
outer loop
vertex 40.0149360181958 -2.13698704597844 8.44129774629983
vertex 30.7149360181958 -0.136987045978441 9.47608022877287
vertex 30.7149360181958 -2.13698704597844 9.47608022877288
endloop
endfacet
facet normal 0.110584502933397 4.19427061004928e-015 0.993866725326376
outer loop
vertex 30.7149360181958 -0.136987045978441 9.47608022877287
vertex 40.0149360181958 -2.13698704597844 8.44129774629983
vertex 40.0149360181958 -0.136987045978441 8.44129774629982
endloop
endfacet
facet normal 1.0 0.0 0.0
outer loop
vertex 26.0700172702415 41.8630129540215 23.4061119625473
vertex 26.0700172702415 7.86301295402162 27.9
vertex 26.0700172702415 7.86301295402162 23.4061119625473
endloop
endfacet
facet normal 1.0 0.0 0.0
outer loop
vertex 26.0700172702415 7.86301295402162 27.9
vertex 26.0700172702415 41.8630129540215 23.4061119625473
vertex 26.0700172702415 18.4328838285911 27.9
endloop
endfacet
facet normal 1.0 0.0 0.0
outer loop
vertex 26.0700172702415 18.4328838285911 27.9
vertex 26.0700172702415 41.8630129540215 23.4061119625473
vertex 26.0700172702415 18.4328838285911 29.4
endloop
endfacet
facet normal 1.0 0.0 0.0
outer loop
vertex 26.0700172702415 18.4328838285911 29.4
vertex 26.0700172702415 41.8630129540215 23.4061119625473
vertex 26.0700172702415 41.8630129540215 29.4
endloop
endfacet
facet normal -0.79335334029123 0.0 0.608761429008728
outer loop
vertex 34.4671315872715 41.8630129540215 21.1561119625473
vertex 33.7519977855809 7.86301295402155 20.2241314472079
vertex 34.4671315872715 7.86301295402155 21.1561119625473
endloop
endfacet
facet normal -0.79335334029123 0.0 0.608761429008728
outer loop
vertex 33.7519977855809 7.86301295402155 20.2241314472079
vertex 34.4671315872715 41.8630129540215 21.1561119625473
vertex 33.7519977855809 41.8630129540215 20.2241314472079
endloop
endfacet
facet normal 0.0 0.0 1.0
outer loop
vertex 35.0700172702414 7.86301295402162 34.6
vertex 37.0384023132566 9.85862817624281 34.6
vertex 35.0700172702414 23.1729804852106 34.6
endloop
endfacet
facet normal 0.0 0.0 1.0
outer loop
vertex 37.0384023132566 9.85862817624281 34.6
vertex 35.0700172702414 7.86301295402162 34.6
vertex 45.1364465713171 7.86301295402155 34.6
endloop
endfacet
facet normal 0.0 0.0 1.0
outer loop
vertex 37.0384023132566 9.85862817624281 34.6
vertex 45.1364465713171 7.86301295402155 34.6
vertex 43.1384023132564 9.85862817624281 34.6
endloop
endfacet
facet normal 0.0 0.0 1.0
outer loop
vertex 43.1384023132564 9.85862817624281 34.6
vertex 45.1364465713171 7.86301295402155 34.6
vertex 43.1384023132564 21.1586281762428 34.6
endloop
endfacet
facet normal 0.0 0.0 1.0
outer loop
vertex 35.0700172702414 23.1729804852106 34.6
vertex 37.0384023132566 21.1586281762428 34.6
vertex 45.1364465713171 23.1729804852106 34.6
endloop
endfacet
facet normal 0.0 0.0 1.0
outer loop
vertex 37.0384023132566 21.1586281762428 34.6
vertex 35.0700172702414 23.1729804852106 34.6
vertex 37.0384023132566 9.85862817624281 34.6
endloop
endfacet
facet normal 0.0 0.0 1.0
outer loop
vertex 45.1364465713171 23.1729804852106 34.6
vertex 37.0384023132566 21.1586281762428 34.6
vertex 43.1384023132564 21.1586281762428 34.6
endloop
endfacet
facet normal 0.0 0.0 1.0
outer loop
vertex 45.1364465713171 23.1729804852106 34.6
vertex 43.1384023132564 21.1586281762428 34.6
vertex 45.1364465713171 7.86301295402155 34.6
endloop
endfacet
facet normal 0.874862063798937 7.8380717552827e-032 0.484372139295258
outer loop
vertex 21.4830742836089 49.8630129540215 16.6891582514005
vertex 20.0542288119199 41.8630129540215 19.2699068056637
vertex 21.4830742836089 41.8630129540215 16.6891582514005
endloop
endfacet
facet normal 0.874862063798937 7.8380717552827e-032 0.484372139295258
outer loop
vertex 20.0542288119199 41.8630129540215 19.2699068056637
vertex 21.4830742836089 49.8630129540215 16.6891582514005
vertex 20.0542288119199 49.8630129540215 19.2699068056637
endloop
endfacet
facet normal 0.0 0.0 1.0
outer loop
vertex 37.0384023132566 9.85862817624281 3.19999999999996
vertex 10.9297491395177 9.90616309027909 3.19999999999996
vertex 10.9297491395177 9.85862817624281 3.19999999999996
endloop
endfacet
facet normal 0.0 0.0 1.0
outer loop
vertex 10.9297491395177 9.90616309027909 3.19999999999996
vertex 37.0384023132566 9.85862817624281 3.19999999999996
vertex 24.1297491395179 9.90616309027909 3.19999999999996
endloop
endfacet
facet normal 0.0 0.0 1.0
outer loop
vertex 24.1297491395179 9.90616309027909 3.19999999999996
vertex 37.0384023132566 9.85862817624281 3.19999999999996
vertex 37.0384023132566 9.90616309027909 3.19999999999996
endloop
endfacet
facet normal 0.0 1.0 0.0
outer loop
vertex 10.9297491395177 9.90616309027909 29.4
vertex 24.1297491395179 9.90616309027909 3.19999999999996
vertex 10.9297491395177 9.90616309027909 3.19999999999996
endloop
endfacet
facet normal 0.0 1.0 0.0
outer loop
vertex 24.1297491395179 9.90616309027909 3.19999999999996
vertex 10.9297491395177 9.90616309027909 29.4
vertex 24.1297491395179 9.90616309027909 29.4
endloop
endfacet
facet normal 0.0179524543843615 -4.75848876196116e-032 0.999838841704791
outer loop
vertex 31.8435983268225 41.8630129540215 12.1781116378093
vertex 28.8941817822061 49.8630129540215 12.2310694383758
vertex 28.8941817822061 41.8630129540215 12.2310694383758
endloop
endfacet
facet normal 0.0179524543843615 -4.75848876196116e-032 0.999838841704791
outer loop
vertex 28.8941817822061 49.8630129540215 12.2310694383758
vertex 31.8435983268225 41.8630129540215 12.1781116378093
vertex 31.8435983268225 49.8630129540215 12.1781116378093
endloop
endfacet
facet normal 0.608761429008731 0.0 0.793353340291228
outer loop
vertex 28.3200172702414 7.86301295402155 19.5089976455173
vertex 27.3880367549019 41.8630129540215 20.2241314472079
vertex 27.3880367549019 7.86301295402155 20.2241314472079
endloop
endfacet
facet normal 0.608761429008731 0.0 0.793353340291228
outer loop
vertex 27.3880367549019 41.8630129540215 20.2241314472079
vertex 28.3200172702414 7.86301295402155 19.5089976455173
vertex 28.3200172702414 41.8630129540215 19.5089976455173
endloop
endfacet
facet normal 0.961123722228598 1.26275228887387e-031 -0.276118073601577
outer loop
vertex 19.3949747460699 49.8630129540215 25.0819474505827
vertex 20.2094932270279 41.8630129540215 27.9171585761386
vertex 19.3949747460699 41.8630129540215 25.0819474505827
endloop
endfacet
facet normal 0.961123722228598 1.26275228887387e-031 -0.276118073601577
outer loop
vertex 20.2094932270279 41.8630129540215 27.9171585761386
vertex 19.3949747460699 49.8630129540215 25.0819474505827
vertex 20.2094932270279 49.8630129540215 27.9171585761386
endloop
endfacet
facet normal -1.0 0.0 0.0
outer loop
vertex 8.93644657131743 7.86301295402155 29.4
vertex 8.93644657131743 49.8630129540215 3.06521751752693
vertex 8.93644657131743 7.86301295402152 3.06521751752693
endloop
endfacet
facet normal -1.0 0.0 0.0
outer loop
vertex 8.93644657131743 49.8630129540215 3.06521751752693
vertex 8.93644657131743 7.86301295402155 29.4
vertex 8.93644657131743 49.8630129540215 29.4
endloop
endfacet
facet normal 1.0 0.0 0.0
outer loop
vertex 37.0384023132566 9.90616309027909 3.19999999999996
vertex 37.0384023132566 9.85862817624281 34.6
vertex 37.0384023132566 9.85862817624281 3.19999999999996
endloop
endfacet
facet normal 1.0 0.0 0.0
outer loop
vertex 37.0384023132566 9.85862817624281 34.6
vertex 37.0384023132566 9.90616309027909 3.19999999999996
vertex 37.0384023132566 21.1586281762428 34.6
endloop
endfacet
facet normal 1.0 0.0 0.0
outer loop
vertex 37.0384023132566 21.1586281762428 34.6
vertex 37.0384023132566 9.90616309027909 3.19999999999996
vertex 37.0384023132566 21.1586281762428 3.19999999999996
endloop
endfacet
facet normal 0.0 -1.0 0.0
outer loop
vertex 45.1364465713171 27.9729804852106 34.6
vertex 35.0700172702414 27.9729804852106 32.1
vertex 45.1364465713171 27.9729804852106 32.1
endloop
endfacet
facet normal 0.0 -1.0 0.0
outer loop
vertex 35.0700172702414 27.9729804852106 32.1
vertex 45.1364465713171 27.9729804852106 34.6
vertex 35.0700172702414 27.9729804852106 34.6
endloop
endfacet
facet normal -0.130526192220038 0.0 0.991444861373812
outer loop
vertex 31.7347029732028 7.86301295402155 19.0594457442465
vertex 30.5700172702414 41.8630129540215 18.9061119625473
vertex 30.5700172702414 7.86301295402155 18.9061119625473
endloop
endfacet
facet normal -0.130526192220038 0.0 0.991444861373812
outer loop
vertex 30.5700172702414 41.8630129540215 18.9061119625473
vertex 31.7347029732028 7.86301295402155 19.0594457442465
vertex 31.7347029732028 41.8630129540215 19.0594457442465
endloop
endfacet
facet normal -0.382683432365099 0.0 0.923879532511283
outer loop
vertex 32.8200172702415 7.86301295402155 19.5089976455173
vertex 31.7347029732028 41.8630129540215 19.0594457442465
vertex 31.7347029732028 7.86301295402155 19.0594457442465
endloop
endfacet
facet normal -0.382683432365099 0.0 0.923879532511283
outer loop
vertex 31.7347029732028 41.8630129540215 19.0594457442465
vertex 32.8200172702415 7.86301295402155 19.5089976455173
vertex 32.8200172702415 41.8630129540215 19.5089976455173
endloop
endfacet
facet normal -0.923879532511299 0.0 0.38268343236506
outer loop
vertex 34.9166834885422 41.8630129540215 22.241426259586
vertex 34.4671315872715 7.86301295402155 21.1561119625473
vertex 34.9166834885422 7.86301295402155 22.241426259586
endloop
endfacet
facet normal -0.923879532511299 0.0 0.38268343236506
outer loop
vertex 34.4671315872715 7.86301295402155 21.1561119625473
vertex 34.9166834885422 41.8630129540215 22.241426259586
vertex 34.4671315872715 41.8630129540215 21.1561119625473
endloop
endfacet
facet normal -1.1650607780974e-015 -1.0 4.07112475191611e-015
outer loop
vertex 39.5836564567557 -2.13698704597848 3.06521751752696
vertex 30.327890257929 -2.13698704597846 5.99754669013058
vertex 30.2836564567557 -2.13698704597846 3.06521751752695
endloop
endfacet
facet normal -1.1650607780974e-015 -1.0 4.07112475191611e-015
outer loop
vertex 30.327890257929 -2.13698704597846 5.99754669013058
vertex 39.5836564567557 -2.13698704597848 3.06521751752696
vertex 39.5836564567557 -2.13698704597848 4.56521751752697
endloop
endfacet
facet normal -1.1650607780974e-015 -1.0 4.07112475191611e-015
outer loop
vertex 30.327890257929 -2.13698704597846 5.99754669013058
vertex 39.5836564567557 -2.13698704597848 4.56521751752697
vertex 40.0149360181958 -2.13698704597844 8.44129774629983
endloop
endfacet
facet normal -1.1650607780974e-015 -1.0 4.07112475191611e-015
outer loop
vertex 30.327890257929 -2.13698704597846 5.99754669013058
vertex 40.0149360181958 -2.13698704597844 8.44129774629983
vertex 30.7149360181958 -2.13698704597844 9.47608022877288
endloop
endfacet
facet normal -0.999999990075724 9.77235681242487e-005 0.000101482292960956
outer loop
vertex 35.0700172702414 23.1729804852106 34.6
vertex 35.0700172702414 7.86301295402162 29.4
vertex 35.0700172702414 7.86301295402162 34.6
endloop
endfacet
facet normal -0.999999990075724 9.77235681242487e-005 0.000101482292960956
outer loop
vertex 35.0700172702414 7.86301295402162 29.4
vertex 35.0700172702414 23.1729804852106 34.6
vertex 35.0700172702414 18.4328838285911 29.4
endloop
endfacet
facet normal -0.999999990075724 9.77235681242487e-005 0.000101482292960956
outer loop
vertex 35.0700172702414 18.4328838285911 29.4
vertex 35.0700172702414 23.1729804852106 34.6
vertex 35.0700172702414 18.4328838285911 27.9
endloop
endfacet
facet normal -0.999999990075724 9.77235681242487e-005 0.000101482292960956
outer loop
vertex 35.0700172702414 27.9729804852106 34.6
vertex 35.0810638838327 41.8630129540215 33.7666360057609
vertex 35.0700172702414 27.9729804852106 32.1
endloop
endfacet
facet normal -0.999999990075724 9.77235681242487e-005 0.000101482292960956
outer loop
vertex 35.0810638838327 41.8630129540215 33.7666360057609
vertex 35.0700172702414 27.9729804852106 34.6
vertex 35.0700172702414 49.8630129540215 34.6
endloop
endfacet
facet normal -0.999999990075724 9.77235681242487e-005 0.000101482292960956
outer loop
vertex 35.0810638838327 41.8630129540215 33.7666360057609
vertex 35.0700172702414 49.8630129540215 34.6
vertex 35.0810638838327 49.8630129540215 33.7666360057609
endloop
endfacet
facet normal -0.999999990075724 9.77235681242487e-005 0.000101482292960956
outer loop
vertex 35.0700172702414 18.4328838285911 27.9
vertex 35.0700172702414 7.86301295402162 23.4061119625473
vertex 35.0700172702414 7.86301295402162 27.9
endloop
endfacet
facet normal -0.999999990075724 9.77235681242487e-005 0.000101482292960956
outer loop
vertex 35.0700172702414 7.86301295402162 23.4061119625473
vertex 35.0700172702414 18.4328838285911 27.9
vertex 35.0700172702414 41.8630129540215 23.4061119625473
endloop
endfacet
facet normal -0.999999990075724 9.77235681242487e-005 0.000101482292960956
outer loop
vertex 35.0700172702414 41.8630129540215 23.4061119625473
vertex 35.0700172702414 18.4328838285911 27.9
vertex 35.0700172702414 23.1729804852106 32.1
endloop
endfacet
facet normal -0.999999990075724 9.77235681242487e-005 0.000101482292960956
outer loop
vertex 35.0700172702414 23.1729804852106 32.1
vertex 35.0700172702414 18.4328838285911 27.9
vertex 35.0700172702414 23.1729804852106 34.6
endloop
endfacet
facet normal -0.999999990075724 9.77235681242487e-005 0.000101482292960956
outer loop
vertex 35.0700172702414 41.8630129540215 23.4061119625473
vertex 35.0700172702414 23.1729804852106 32.1
vertex 35.0700172702414 27.9729804852106 32.1
endloop
endfacet
facet normal -0.999999990075724 9.77235681242487e-005 0.000101482292960956
outer loop
vertex 35.0700172702414 41.8630129540215 23.4061119625473
vertex 35.0700172702414 27.9729804852106 32.1
vertex 35.0810638838327 41.8630129540215 33.7666360057609
endloop
endfacet
facet normal 0.719687127297285 4.97764401973395e-032 0.694298522829036
outer loop
vertex 23.5311799029536 49.8630129540215 14.5661589922611
vertex 21.4830742836089 41.8630129540215 16.6891582514005
vertex 23.5311799029536 41.8630129540215 14.5661589922611
endloop
endfacet
facet normal 0.719687127297285 4.97764401973395e-032 0.694298522829036
outer loop
vertex 21.4830742836089 41.8630129540215 16.6891582514005
vertex 23.5311799029536 49.8630129540215 14.5661589922611
vertex 21.4830742836089 49.8630129540215 16.6891582514005
endloop
endfacet
facet normal 0.276118073601576 -1.5428155095644e-032 0.961123722228598
outer loop
vertex 28.8941817822061 41.8630129540215 12.2310694383758
vertex 26.0589706566502 49.8630129540215 13.0455879193337
vertex 26.0589706566502 41.8630129540215 13.0455879193337
endloop
endfacet
facet normal 0.276118073601576 -1.5428155095644e-032 0.961123722228598
outer loop
vertex 26.0589706566502 49.8630129540215 13.0455879193337
vertex 28.8941817822061 41.8630129540215 12.2310694383758
vertex 28.8941817822061 49.8630129540215 12.2310694383758
endloop
endfacet
facet normal 8.04426284722051e-032 1.0 -5.07360830063683e-032
outer loop
vertex 28.8941817822061 41.8630129540215 12.2310694383758
vertex 34.7062224271251 41.8630129540215 12.8903235042258
vertex 31.8435983268225 41.8630129540215 12.1781116378093
endloop
endfacet
facet normal 8.04426284722051e-032 1.0 -5.07360830063683e-032
outer loop
vertex 34.7062224271251 41.8630129540215 12.8903235042258
vertex 28.8941817822061 41.8630129540215 12.2310694383758
vertex 26.0589706566502 41.8630129540215 13.0455879193337
endloop
endfacet
facet normal 8.04426284722051e-032 1.0 -5.07360830063683e-032
outer loop
vertex 34.7062224271251 41.8630129540215 12.8903235042258
vertex 26.0589706566502 41.8630129540215 13.0455879193337
vertex 37.2869709813883 41.8630129540215 14.3191689759148
endloop
endfacet
facet normal 8.04426284722051e-032 1.0 -5.07360830063683e-032
outer loop
vertex 37.2869709813883 41.8630129540215 14.3191689759148
vertex 26.0589706566502 41.8630129540215 13.0455879193337
vertex 23.5311799029536 41.8630129540215 14.5661589922611
endloop
endfacet
facet normal 8.04426284722051e-032 1.0 -5.07360830063683e-032
outer loop
vertex 37.2869709813883 41.8630129540215 14.3191689759148
vertex 23.5311799029536 41.8630129540215 14.5661589922611
vertex 39.4099702405276 41.8630129540215 16.3672745952595
endloop
endfacet
facet normal 8.04426284722051e-032 1.0 -5.07360830063683e-032
outer loop
vertex 39.4099702405276 41.8630129540215 16.3672745952595
vertex 23.5311799029536 41.8630129540215 14.5661589922611
vertex 21.4830742836089 41.8630129540215 16.6891582514005
endloop
endfacet
facet normal 8.04426284722051e-032 1.0 -5.07360830063683e-032
outer loop
vertex 39.4099702405276 41.8630129540215 16.3672745952595
vertex 21.4830742836089 41.8630129540215 16.6891582514005
vertex 40.930541313455 41.8630129540215 18.8950653489561
endloop
endfacet
facet normal 8.04426284722051e-032 1.0 -5.07360830063683e-032
outer loop
vertex 40.930541313455 41.8630129540215 18.8950653489561
vertex 21.4830742836089 41.8630129540215 16.6891582514005
vertex 30.5700172702414 41.8630129540215 18.9061119625473
endloop
endfacet
facet normal 8.04426284722051e-032 1.0 -5.07360830063683e-032
outer loop
vertex 30.5700172702414 41.8630129540215 18.9061119625473
vertex 21.4830742836089 41.8630129540215 16.6891582514005
vertex 20.0542288119199 41.8630129540215 19.2699068056637
endloop
endfacet
facet normal 8.04426284722051e-032 1.0 -5.07360830063683e-032
outer loop
vertex 30.5700172702414 41.8630129540215 18.9061119625473
vertex 20.0542288119199 41.8630129540215 19.2699068056637
vertex 29.4053315672801 41.8630129540215 19.0594457442465
endloop
endfacet
facet normal 8.04426284722051e-032 1.0 -5.07360830063683e-032
outer loop
vertex 29.4053315672801 41.8630129540215 19.0594457442465
vertex 20.0542288119199 41.8630129540215 19.2699068056637
vertex 28.3200172702414 41.8630129540215 19.5089976455173
endloop
endfacet
facet normal 8.04426284722051e-032 1.0 -5.07360830063683e-032
outer loop
vertex 28.3200172702414 41.8630129540215 19.5089976455173
vertex 20.0542288119199 41.8630129540215 19.2699068056637
vertex 19.3420169455034 41.8630129540215 22.1325309059663
endloop
endfacet
facet normal 8.04426284722051e-032 1.0 -5.07360830063683e-032
outer loop
vertex 28.3200172702414 41.8630129540215 19.5089976455173
vertex 19.3420169455034 41.8630129540215 22.1325309059663
vertex 27.3880367549019 41.8630129540215 20.2241314472079
endloop
endfacet
facet normal 8.04426284722051e-032 1.0 -5.07360830063683e-032
outer loop
vertex 27.3880367549019 41.8630129540215 20.2241314472079
vertex 19.3420169455034 41.8630129540215 22.1325309059663
vertex 26.6729029532115 41.8630129540215 21.1561119625473
endloop
endfacet
facet normal 8.04426284722051e-032 1.0 -5.07360830063683e-032
outer loop
vertex 26.6729029532115 41.8630129540215 21.1561119625473
vertex 19.3420169455034 41.8630129540215 22.1325309059663
vertex 26.2233510519406 41.8630129540215 22.241426259586
endloop
endfacet
facet normal 8.04426284722051e-032 1.0 -5.07360830063683e-032
outer loop
vertex 26.2233510519406 41.8630129540215 22.241426259586
vertex 19.3420169455034 41.8630129540215 22.1325309059663
vertex 19.3949747460699 41.8630129540215 25.0819474505827
endloop
endfacet
facet normal 8.04426284722051e-032 1.0 -5.07360830063683e-032
outer loop
vertex 26.2233510519406 41.8630129540215 22.241426259586
vertex 19.3949747460699 41.8630129540215 25.0819474505827
vertex 26.0700172702415 41.8630129540215 23.4061119625473
endloop
endfacet
facet normal 8.04426284722051e-032 1.0 -5.07360830063683e-032
outer loop
vertex 26.0700172702415 41.8630129540215 23.4061119625473
vertex 19.3949747460699 41.8630129540215 25.0819474505827
vertex 26.0700172702415 41.8630129540215 29.4
endloop
endfacet
facet normal 8.04426284722051e-032 1.0 -5.07360830063683e-032
outer loop
vertex 26.0700172702415 41.8630129540215 29.4
vertex 19.3949747460699 41.8630129540215 25.0819474505827
vertex 20.2094932270279 41.8630129540215 27.9171585761386
endloop
endfacet
facet normal 8.04426284722051e-032 1.0 -5.07360830063683e-032
outer loop
vertex 26.0700172702415 41.8630129540215 29.4
vertex 20.2094932270279 41.8630129540215 27.9171585761386
vertex 21.1014838997387 41.8630129540215 29.4
endloop
endfacet
facet normal 8.04426284722051e-032 1.0 -5.07360830063683e-032
outer loop
vertex 40.930541313455 41.8630129540215 18.8950653489561
vertex 31.7347029732028 41.8630129540215 19.0594457442465
vertex 41.7450597944129 41.8630129540215 21.730276474512
endloop
endfacet
facet normal 8.04426284722051e-032 1.0 -5.07360830063683e-032
outer loop
vertex 31.7347029732028 41.8630129540215 19.0594457442465
vertex 40.930541313455 41.8630129540215 18.8950653489561
vertex 30.5700172702414 41.8630129540215 18.9061119625473
endloop
endfacet
facet normal 8.04426284722051e-032 1.0 -5.07360830063683e-032
outer loop
vertex 41.7450597944129 41.8630129540215 21.730276474512
vertex 31.7347029732028 41.8630129540215 19.0594457442465
vertex 32.8200172702415 41.8630129540215 19.5089976455173
endloop
endfacet
facet normal 8.04426284722051e-032 1.0 -5.07360830063683e-032
outer loop
vertex 41.7450597944129 41.8630129540215 21.730276474512
vertex 32.8200172702415 41.8630129540215 19.5089976455173
vertex 33.7519977855809 41.8630129540215 20.2241314472079
endloop
endfacet
facet normal 8.04426284722051e-032 1.0 -5.07360830063683e-032
outer loop
vertex 41.7450597944129 41.8630129540215 21.730276474512
vertex 33.7519977855809 41.8630129540215 20.2241314472079
vertex 34.4671315872715 41.8630129540215 21.1561119625473
endloop
endfacet
facet normal 8.04426284722051e-032 1.0 -5.07360830063683e-032
outer loop
vertex 41.7450597944129 41.8630129540215 21.730276474512
vertex 34.4671315872715 41.8630129540215 21.1561119625473
vertex 34.9166834885422 41.8630129540215 22.241426259586
endloop
endfacet
facet normal 8.04426284722051e-032 1.0 -5.07360830063683e-032
outer loop
vertex 41.7450597944129 41.8630129540215 21.730276474512
vertex 34.9166834885422 41.8630129540215 22.241426259586
vertex 41.7980175949795 41.8630129540215 24.6796930191283
endloop
endfacet
facet normal 8.04426284722051e-032 1.0 -5.07360830063683e-032
outer loop
vertex 41.7980175949795 41.8630129540215 24.6796930191283
vertex 34.9166834885422 41.8630129540215 22.241426259586
vertex 35.0700172702414 41.8630129540215 23.4061119625473
endloop
endfacet
facet normal 8.04426284722051e-032 1.0 -5.07360830063683e-032
outer loop
vertex 41.7980175949795 41.8630129540215 24.6796930191283
vertex 35.0700172702414 41.8630129540215 23.4061119625473
vertex 35.0810638838327 41.8630129540215 33.7666360057609
endloop
endfacet
facet normal 8.04426284722051e-032 1.0 -5.07360830063683e-032
outer loop
vertex 41.7980175949795 41.8630129540215 24.6796930191283
vertex 35.0810638838327 41.8630129540215 33.7666360057609
vertex 41.085805728563 41.8630129540215 27.5423171194309
endloop
endfacet
facet normal 8.04426284722051e-032 1.0 -5.07360830063683e-032
outer loop
vertex 41.085805728563 41.8630129540215 27.5423171194309
vertex 35.0810638838327 41.8630129540215 33.7666360057609
vertex 39.656960256874 41.8630129540215 30.1230656736941
endloop
endfacet
facet normal 8.04426284722051e-032 1.0 -5.07360830063683e-032
outer loop
vertex 39.656960256874 41.8630129540215 30.1230656736941
vertex 35.0810638838327 41.8630129540215 33.7666360057609
vertex 37.6088546375293 41.8630129540215 32.2460649328335
endloop
endfacet
facet normal 0.130526192220048 0.0 0.991444861373811
outer loop
vertex 30.5700172702414 7.86301295402155 18.9061119625473
vertex 29.4053315672801 41.8630129540215 19.0594457442465
vertex 29.4053315672801 7.86301295402155 19.0594457442465
endloop
endfacet
facet normal 0.130526192220048 0.0 0.991444861373811
outer loop
vertex 29.4053315672801 41.8630129540215 19.0594457442465
vertex 30.5700172702414 7.86301295402155 18.9061119625473
vertex 30.5700172702414 41.8630129540215 18.9061119625473
endloop
endfacet
facet normal 0.0 1.0 0.0
outer loop
vertex 37.0384023132566 9.85862817624281 34.6
vertex 43.1384023132564 9.85862817624281 3.19999999999996
vertex 37.0384023132566 9.85862817624281 3.19999999999996
endloop
endfacet
facet normal 0.0 1.0 0.0
outer loop
vertex 43.1384023132564 9.85862817624281 3.19999999999996
vertex 37.0384023132566 9.85862817624281 34.6
vertex 43.1384023132564 9.85862817624281 34.6
endloop
endfacet
facet normal -1.0 0.0 0.0
outer loop
vertex 43.1384023132564 21.1586281762428 34.6
vertex 43.1384023132564 9.85862817624281 3.19999999999996
vertex 43.1384023132564 9.85862817624281 34.6
endloop
endfacet
facet normal -1.0 0.0 0.0
outer loop
vertex 43.1384023132564 9.85862817624281 3.19999999999996
vertex 43.1384023132564 21.1586281762428 34.6
vertex 43.1384023132564 21.1586281762428 3.19999999999996
endloop
endfacet
facet normal -1.0 0.0 0.0
outer loop
vertex 24.1297491395179 39.8435466295285 29.4
vertex 24.1297491395179 9.90616309027909 3.19999999999996
vertex 24.1297491395179 9.90616309027909 29.4
endloop
endfacet
facet normal -1.0 0.0 0.0
outer loop
vertex 24.1297491395179 9.90616309027909 3.19999999999996
vertex 24.1297491395179 39.8435466295285 29.4
vertex 24.1297491395179 39.8435466295285 3.19999999999998
endloop
endfacet
facet normal -0.999886242778968 2.18181245095604e-017 0.0150831528984578
outer loop
vertex 30.327890257929 -2.13698704597846 5.99754669013058
vertex 30.2836564567557 7.86301295402153 3.06521751752693
vertex 30.2836564567557 -2.13698704597846 3.06521751752695
endloop
endfacet
facet normal -0.999886242778968 2.18181245095604e-017 0.0150831528984578
outer loop
vertex 30.2836564567557 7.86301295402153 3.06521751752693
vertex 30.327890257929 -2.13698704597846 5.99754669013058
vertex 30.327890257929 -0.136987045978456 5.99754669013057
endloop
endfacet
facet normal -0.999886242778968 2.18181245095604e-017 0.0150831528984578
outer loop
vertex 30.2836564567557 7.86301295402153 3.06521751752693
vertex 30.327890257929 -0.136987045978456 5.99754669013057
vertex 30.327890257929 7.86301295402154 5.99754669013054
endloop
endfacet
facet normal 0.993866725326396 -3.07121954334123e-016 -0.110584502933219
outer loop
vertex 39.5836564567557 -2.13698704597848 4.56521751752697
vertex 39.627890257929 -0.136987045978456 4.96276420765751
vertex 40.0149360181958 -2.13698704597844 8.44129774629983
endloop
endfacet
facet normal 0.993866725326396 -3.07121954334123e-016 -0.110584502933219
outer loop
vertex 39.627890257929 -0.136987045978456 4.96276420765751
vertex 39.5836564567557 -2.13698704597848 4.56521751752697
vertex 39.5836564567557 7.86301295402152 4.56521751752694
endloop
endfacet
facet normal 0.993866725326396 -3.07121954334123e-016 -0.110584502933219
outer loop
vertex 39.627890257929 -0.136987045978456 4.96276420765751
vertex 39.5836564567557 7.86301295402152 4.56521751752694
vertex 39.627890257929 7.86301295402154 4.96276420765747
endloop
endfacet
facet normal 0.993866725326396 -3.07121954334123e-016 -0.110584502933219
outer loop
vertex 40.0149360181958 -0.136987045978441 8.44129774629982
vertex 40.0149360181958 -2.13698704597844 8.44129774629983
vertex 39.627890257929 -0.136987045978456 4.96276420765751
endloop
endfacet
facet normal 0.970416596430612 1.0164347853735e-031 0.241436594931313
outer loop
vertex 20.0542288119199 49.8630129540215 19.2699068056637
vertex 19.3420169455034 41.8630129540215 22.1325309059663
vertex 20.0542288119199 41.8630129540215 19.2699068056637
endloop
endfacet
facet normal 0.970416596430612 1.0164347853735e-031 0.241436594931313
outer loop
vertex 19.3420169455034 41.8630129540215 22.1325309059663
vertex 20.0542288119199 49.8630129540215 19.2699068056637
vertex 19.3420169455034 49.8630129540215 22.1325309059663
endloop
endfacet
facet normal 1.0 0.0 0.0
outer loop
vertex 45.1364465713171 23.1729804852106 34.6
vertex 45.1364465713171 7.86301295402155 34.6
vertex 45.1364465713171 23.1729804852106 32.1
endloop
endfacet
facet normal 1.0 0.0 0.0
outer loop
vertex 45.1364465713171 49.8630129540215 3.06521751752693
vertex 45.1364465713171 7.86301295402155 34.6
vertex 45.1364465713171 7.86301295402152 3.06521751752693
endloop
endfacet
facet normal 1.0 0.0 0.0
outer loop
vertex 45.1364465713171 7.86301295402155 34.6
vertex 45.1364465713171 49.8630129540215 3.06521751752693
vertex 45.1364465713171 23.1729804852106 32.1
endloop
endfacet
facet normal 1.0 0.0 0.0
outer loop
vertex 45.1364465713171 23.1729804852106 32.1
vertex 45.1364465713171 49.8630129540215 3.06521751752693
vertex 45.1364465713171 27.9729804852106 32.1
endloop
endfacet
facet normal 1.0 0.0 0.0
outer loop
vertex 45.1364465713171 27.9729804852106 32.1
vertex 45.1364465713171 49.8630129540215 3.06521751752693
vertex 45.1364465713171 27.9729804852106 34.6
endloop
endfacet
facet normal 1.0 0.0 0.0
outer loop
vertex 45.1364465713171 27.9729804852106 34.6
vertex 45.1364465713171 49.8630129540215 3.06521751752693
vertex 45.1364465713171 49.8630129540215 34.6
endloop
endfacet
facet normal 0.0 0.0 1.0
outer loop
vertex 43.1384023132564 9.85862817624281 3.19999999999996
vertex 37.0384023132566 9.90616309027909 3.19999999999996
vertex 37.0384023132566 9.85862817624281 3.19999999999996
endloop
endfacet
facet normal 0.0 0.0 1.0
outer loop
vertex 37.0384023132566 9.90616309027909 3.19999999999996
vertex 43.1384023132564 9.85862817624281 3.19999999999996
vertex 37.0384023132566 21.1586281762428 3.19999999999996
endloop
endfacet
facet normal 0.0 0.0 1.0
outer loop
vertex 37.0384023132566 21.1586281762428 3.19999999999996
vertex 43.1384023132564 9.85862817624281 3.19999999999996
vertex 43.1384023132564 21.1586281762428 3.19999999999996
endloop
endfacet
endsolid hobber 3
