solid hobber 3
facet normal 0.0 -3.67761376907083e-016 1.0
outer loop
vertex 64.5900755446557 28.7534926605846 4.1517005266291
vertex 68.1434055592915 29.2013364878571 4.15170052662907
vertex 67.6500411674377 36.1451508228235 4.1517005266291
endloop
endfacet
facet normal 0.0 -3.67761376907083e-016 1.0
outer loop
vertex 68.1434055592915 29.2013364878571 4.15170052662907
vertex 64.5900755446557 28.7534926605846 4.1517005266291
vertex 69.4614564778542 22.4076556154289 4.1517005266291
endloop
endfacet
facet normal 0.0 -3.67761376907083e-016 1.0
outer loop
vertex 67.6500411674377 36.1451508228235 4.1517005266291
vertex 68.1434055592915 29.2013364878571 4.15170052662907
vertex 68.1338838058268 30.3760336281889 4.15170052662907
endloop
endfacet
facet normal 0.0 -3.67761376907083e-016 1.0
outer loop
vertex 68.1434055592915 29.2013364878571 4.15170052662907
vertex 69.4614564778542 22.4076556154289 4.1517005266291
vertex 68.4566368590198 28.0691305930822 4.15170052662907
endloop
endfacet
facet normal 0.0 -3.67761376907083e-016 1.0
outer loop
vertex 68.4566368590198 28.0691305930822 4.15170052662907
vertex 69.4614564778542 22.4076556154289 4.1517005266291
vertex 69.0522315095747 27.0565739045342 4.15170052662907
endloop
endfacet
facet normal 0.0 -3.67761376907083e-016 1.0
outer loop
vertex 69.0522315095747 27.0565739045342 4.15170052662907
vertex 69.4614564778542 22.4076556154289 4.1517005266291
vertex 69.8896007197873 26.2326704872088 4.15170052662906
endloop
endfacet
facet normal 0.0 -3.67761376907083e-016 1.0
outer loop
vertex 69.8896007197873 26.2326704872088 4.15170052662906
vertex 69.4614564778542 22.4076556154289 4.1517005266291
vertex 70.9116791617999 25.6535679974318 4.15170052662906
endloop
endfacet
facet normal 0.0 -3.67761376907083e-016 1.0
outer loop
vertex 70.9116791617999 25.6535679974318 4.15170052662906
vertex 69.4614564778542 22.4076556154289 4.1517005266291
vertex 77.3928030338346 23.4534767325121 4.1517005266291
endloop
endfacet
facet normal 0.0 -3.67761376907083e-016 1.0
outer loop
vertex 70.9116791617999 25.6535679974318 4.15170052662906
vertex 77.3928030338346 23.4534767325121 4.1517005266291
vertex 72.0488138788537 25.3587313128695 4.15170052662906
endloop
endfacet
facet normal 0.0 -3.67761376907083e-016 1.0
outer loop
vertex 72.0488138788537 25.3587313128695 4.15170052662906
vertex 77.3928030338346 23.4534767325121 4.1517005266291
vertex 73.2235110191855 25.3682530663341 4.15170052662906
endloop
endfacet
facet normal 0.0 -3.67761376907083e-016 1.0
outer loop
vertex 73.2235110191855 25.3682530663341 4.15170052662906
vertex 77.3928030338346 23.4534767325121 4.1517005266291
vertex 74.3557169139605 25.6814843660625 4.15170052662906
endloop
endfacet
facet normal 0.0 -3.67761376907083e-016 1.0
outer loop
vertex 74.3557169139605 25.6814843660625 4.15170052662906
vertex 77.3928030338346 23.4534767325121 4.1517005266291
vertex 75.3682736025084 26.2770790166173 4.15170052662906
endloop
endfacet
facet normal 0.0 -3.67761376907083e-016 1.0
outer loop
vertex 75.3682736025084 26.2770790166173 4.15170052662906
vertex 77.3928030338346 23.4534767325121 4.1517005266291
vertex 76.1921770198339 27.11444822683 4.15170052662906
endloop
endfacet
facet normal 0.0 -3.67761376907083e-016 1.0
outer loop
vertex 76.1921770198339 27.11444822683 4.15170052662906
vertex 77.3928030338346 23.4534767325121 4.1517005266291
vertex 76.7712795096108 28.1365266688426 4.15170052662907
endloop
endfacet
facet normal 0.0 -3.67761376907083e-016 1.0
outer loop
vertex 76.7712795096108 28.1365266688426 4.15170052662907
vertex 77.3928030338346 23.4534767325121 4.1517005266291
vertex 77.0661161941732 29.2736613858964 4.15170052662907
endloop
endfacet
facet normal 0.0 -3.67761376907083e-016 1.0
outer loop
vertex 67.6500411674377 36.1451508228235 4.1517005266291
vertex 69.8317263974915 33.372615997468 4.15170052662907
vertex 75.5813877234181 37.1909719399067 4.1517005266291
endloop
endfacet
facet normal 0.0 -3.67761376907083e-016 1.0
outer loop
vertex 69.8317263974915 33.372615997468 4.15170052662907
vertex 67.6500411674377 36.1451508228235 4.1517005266291
vertex 69.0078229801661 32.5352467872553 4.15170052662907
endloop
endfacet
facet normal 0.0 -3.67761376907083e-016 1.0
outer loop
vertex 69.0078229801661 32.5352467872553 4.15170052662907
vertex 67.6500411674377 36.1451508228235 4.1517005266291
vertex 68.4287204903891 31.5131683452427 4.15170052662907
endloop
endfacet
facet normal 0.0 -3.67761376907083e-016 1.0
outer loop
vertex 68.4287204903891 31.5131683452427 4.15170052662907
vertex 67.6500411674377 36.1451508228235 4.1517005266291
vertex 68.1338838058268 30.3760336281889 4.15170052662907
endloop
endfacet
facet normal 0.0 -3.67761376907083e-016 1.0
outer loop
vertex 75.5813877234181 37.1909719399067 4.1517005266291
vertex 69.8317263974915 33.372615997468 4.15170052662907
vertex 70.8442830860395 33.9682106480228 4.15170052662908
endloop
endfacet
facet normal 0.0 -3.67761376907083e-016 1.0
outer loop
vertex 75.5813877234181 37.1909719399067 4.1517005266291
vertex 70.8442830860395 33.9682106480228 4.15170052662908
vertex 71.9764889808145 34.2814419477512 4.15170052662908
endloop
endfacet
facet normal 0.0 -3.67761376907083e-016 1.0
outer loop
vertex 75.5813877234181 37.1909719399067 4.1517005266291
vertex 71.9764889808145 34.2814419477512 4.15170052662908
vertex 73.1511861211463 34.2909637012158 4.15170052662908
endloop
endfacet
facet normal 0.0 -3.67761376907083e-016 1.0
outer loop
vertex 75.5813877234181 37.1909719399067 4.1517005266291
vertex 73.1511861211463 34.2909637012158 4.15170052662908
vertex 74.2883208382001 33.9961270166535 4.15170052662907
endloop
endfacet
facet normal 0.0 -3.67761376907083e-016 1.0
outer loop
vertex 75.5813877234181 37.1909719399067 4.1517005266291
vertex 74.2883208382001 33.9961270166535 4.15170052662907
vertex 75.3103992802126 33.4170245268765 4.15170052662907
endloop
endfacet
facet normal 0.0 -3.67761376907083e-016 1.0
outer loop
vertex 75.5813877234181 37.1909719399067 4.1517005266291
vertex 75.3103992802126 33.4170245268765 4.15170052662907
vertex 76.1477684904253 32.5931211095511 4.15170052662907
endloop
endfacet
facet normal 0.0 -3.67761376907083e-016 1.0
outer loop
vertex 75.5813877234181 37.1909719399067 4.1517005266291
vertex 76.1477684904253 32.5931211095511 4.15170052662907
vertex 80.4527686566166 30.845134894751 4.1517005266291
endloop
endfacet
facet normal 0.0 -3.67761376907083e-016 1.0
outer loop
vertex 80.4527686566166 30.845134894751 4.1517005266291
vertex 76.1477684904253 32.5931211095511 4.15170052662907
vertex 76.7433631409802 31.5805644210032 4.15170052662907
endloop
endfacet
facet normal 0.0 -3.67761376907083e-016 1.0
outer loop
vertex 80.4527686566166 30.845134894751 4.1517005266291
vertex 76.7433631409802 31.5805644210032 4.15170052662907
vertex 77.0565944407085 30.4483585262282 4.15170052662907
endloop
endfacet
facet normal 0.0 -3.67761376907083e-016 1.0
outer loop
vertex 80.4527686566166 30.845134894751 4.1517005266291
vertex 77.0565944407085 30.4483585262282 4.15170052662907
vertex 77.0661161941732 29.2736613858964 4.15170052662907
endloop
endfacet
facet normal 0.0 -3.67761376907083e-016 1.0
outer loop
vertex 80.4527686566166 30.845134894751 4.1517005266291
vertex 77.0661161941732 29.2736613858964 4.15170052662907
vertex 77.3928030338346 23.4534767325121 4.1517005266291
endloop
endfacet
facet normal 0.923957270279859 -0.382495702847748 -1.4066714634033e-016
outer loop
vertex 64.5900755446557 28.7534926605846 9.1517005266291
vertex 67.6500411674377 36.1451508228235 4.1517005266291
vertex 67.6500411674377 36.1451508228235 9.1517005266291
endloop
endfacet
facet normal 0.923957270279859 -0.382495702847748 -1.4066714634033e-016
outer loop
vertex 67.6500411674377 36.1451508228235 4.1517005266291
vertex 64.5900755446557 28.7534926605846 9.1517005266291
vertex 64.5900755446557 28.7534926605846 4.1517005266291
endloop
endfacet
facet normal 4.65997553038029e-032 2.39008290349758e-016 -1.0
outer loop
vertex 73.2235110191855 25.3682530663341 2.15170052662907
vertex 72.6 12.9248475070427 2.15170052662906
vertex 72.0488138788537 25.3587313128695 2.15170052662907
endloop
endfacet
facet normal 4.65997553038029e-032 2.39008290349758e-016 -1.0
outer loop
vertex 72.6 12.9248475070427 2.15170052662906
vertex 73.2235110191855 25.3682530663341 2.15170052662907
vertex 80.124365 12.9248475070427 2.15170052662906
endloop
endfacet
facet normal 4.65997553038029e-032 2.39008290349758e-016 -1.0
outer loop
vertex 80.124365 12.9248475070427 2.15170052662906
vertex 73.2235110191855 25.3682530663341 2.15170052662907
vertex 74.3557169139605 25.6814843660625 2.15170052662907
endloop
endfacet
facet normal 4.65997553038029e-032 2.39008290349758e-016 -1.0
outer loop
vertex 80.124365 12.9248475070427 2.15170052662906
vertex 74.3557169139605 25.6814843660625 2.15170052662907
vertex 79.473849 14.3859295070427 2.15170052662909
endloop
endfacet
facet normal 4.65997553038029e-032 2.39008290349758e-016 -1.0
outer loop
vertex 79.473849 14.3859295070427 2.15170052662909
vertex 74.3557169139605 25.6814843660625 2.15170052662907
vertex 75.3682736025084 26.2770790166173 2.15170052662907
endloop
endfacet
facet normal 4.65997553038029e-032 2.39008290349758e-016 -1.0
outer loop
vertex 79.473849 14.3859295070427 2.15170052662909
vertex 75.3682736025084 26.2770790166173 2.15170052662907
vertex 76.1921770198339 27.11444822683 2.15170052662907
endloop
endfacet
facet normal 4.65997553038029e-032 2.39008290349758e-016 -1.0
outer loop
vertex 79.473849 14.3859295070427 2.15170052662909
vertex 76.1921770198339 27.11444822683 2.15170052662907
vertex 76.7712795096108 28.1365266688426 2.15170052662908
endloop
endfacet
facet normal 4.65997553038029e-032 2.39008290349758e-016 -1.0
outer loop
vertex 79.473849 14.3859295070427 2.15170052662909
vertex 76.7712795096108 28.1365266688426 2.15170052662908
vertex 77.0661161941732 29.2736613858964 2.15170052662908
endloop
endfacet
facet normal 4.65997553038029e-032 2.39008290349758e-016 -1.0
outer loop
vertex 89.4074200000001 31.5913785070427 2.15170052662908
vertex 88.6728550000001 24.6024605070426 2.15170052662907
vertex 88.6209100000001 39.0745245070426 2.15170052662908
endloop
endfacet
facet normal 4.65997553038029e-032 2.39008290349758e-016 -1.0
outer loop
vertex 88.6728550000001 24.6024605070426 2.15170052662907
vertex 89.4074200000001 31.5913785070427 2.15170052662908
vertex 90.9980120000001 31.7585565070426 2.15170052662908
endloop
endfacet
facet normal 4.65997553038029e-032 2.39008290349758e-016 -1.0
outer loop
vertex 87.2358290000001 38.2748475070426 2.15170052662909
vertex 85.159148 18.5165405070427 2.15170052662908
vertex 83.473647 44.7911385070426 2.15170052662909
endloop
endfacet
facet normal 4.65997553038029e-032 2.39008290349758e-016 -1.0
outer loop
vertex 85.159148 18.5165405070427 2.15170052662908
vertex 87.2358290000001 38.2748475070426 2.15170052662909
vertex 88.6728550000001 24.6024605070426 2.15170052662907
endloop
endfacet
facet normal 4.65997553038029e-032 2.39008290349758e-016 -1.0
outer loop
vertex 85.159148 18.5165405070427 2.15170052662908
vertex 88.6728550000001 24.6024605070426 2.15170052662907
vertex 90.19393 24.1082335070427 2.15170052662907
endloop
endfacet
facet normal 4.65997553038029e-032 2.39008290349758e-016 -1.0
outer loop
vertex 88.6728550000001 24.6024605070426 2.15170052662907
vertex 87.2358290000001 38.2748475070426 2.15170052662909
vertex 88.6209100000001 39.0745245070426 2.15170052662908
endloop
endfacet
facet normal 4.65997553038029e-032 2.39008290349758e-016 -1.0
outer loop
vertex 76.113708 46.3555415070426 2.15170052662908
vertex 69.086292 46.3555415070426 2.15170052662908
vertex 68.753768 47.9199455070427 2.15170052662906
endloop
endfacet
facet normal 4.65997553038029e-032 2.39008290349758e-016 -1.0
outer loop
vertex 69.086292 46.3555415070426 2.15170052662908
vertex 76.113708 46.3555415070426 2.15170052662908
vertex 69.8317263974915 33.372615997468 2.15170052662908
endloop
endfacet
facet normal 4.65997553038029e-032 2.39008290349758e-016 -1.0
outer loop
vertex 69.8317263974915 33.372615997468 2.15170052662908
vertex 76.113708 46.3555415070426 2.15170052662908
vertex 70.8442830860395 33.9682106480228 2.15170052662908
endloop
endfacet
facet normal 4.65997553038029e-032 2.39008290349758e-016 -1.0
outer loop
vertex 70.8442830860395 33.9682106480228 2.15170052662908
vertex 76.113708 46.3555415070426 2.15170052662908
vertex 71.9764889808145 34.2814419477512 2.15170052662908
endloop
endfacet
facet normal 4.65997553038029e-032 2.39008290349758e-016 -1.0
outer loop
vertex 71.9764889808145 34.2814419477512 2.15170052662908
vertex 76.113708 46.3555415070426 2.15170052662908
vertex 73.1511861211463 34.2909637012158 2.15170052662908
endloop
endfacet
facet normal 4.65997553038029e-032 2.39008290349758e-016 -1.0
outer loop
vertex 73.1511861211463 34.2909637012158 2.15170052662908
vertex 76.113708 46.3555415070426 2.15170052662908
vertex 74.2883208382001 33.9961270166535 2.15170052662908
endloop
endfacet
facet normal 4.65997553038029e-032 2.39008290349758e-016 -1.0
outer loop
vertex 74.2883208382001 33.9961270166535 2.15170052662908
vertex 76.113708 46.3555415070426 2.15170052662908
vertex 75.3103992802126 33.4170245268765 2.15170052662908
endloop
endfacet
facet normal 4.65997553038029e-032 2.39008290349758e-016 -1.0
outer loop
vertex 75.3103992802126 33.4170245268765 2.15170052662908
vertex 76.113708 46.3555415070426 2.15170052662908
vertex 76.1477684904253 32.5931211095511 2.15170052662908
endloop
endfacet
facet normal 4.65997553038029e-032 2.39008290349758e-016 -1.0
outer loop
vertex 76.1477684904253 32.5931211095511 2.15170052662908
vertex 76.113708 46.3555415070426 2.15170052662908
vertex 76.446232 47.9199455070427 2.15170052662906
endloop
endfacet
facet normal 4.65997553038029e-032 2.39008290349758e-016 -1.0
outer loop
vertex 76.1477684904253 32.5931211095511 2.15170052662908
vertex 76.446232 47.9199455070427 2.15170052662906
vertex 76.7433631409802 31.5805644210032 2.15170052662908
endloop
endfacet
facet normal 4.65997553038029e-032 2.39008290349758e-016 -1.0
outer loop
vertex 76.7433631409802 31.5805644210032 2.15170052662908
vertex 76.446232 47.9199455070427 2.15170052662906
vertex 82.533571 43.4972345070426 2.15170052662909
endloop
endfacet
facet normal 4.65997553038029e-032 2.39008290349758e-016 -1.0
outer loop
vertex 76.7433631409802 31.5805644210032 2.15170052662908
vertex 82.533571 43.4972345070426 2.15170052662909
vertex 77.0565944407085 30.4483585262282 2.15170052662908
endloop
endfacet
facet normal 4.65997553038029e-032 2.39008290349758e-016 -1.0
outer loop
vertex 77.0565944407085 30.4483585262282 2.15170052662908
vertex 82.533571 43.4972345070426 2.15170052662909
vertex 77.0661161941732 29.2736613858964 2.15170052662908
endloop
endfacet
facet normal 4.65997553038029e-032 2.39008290349758e-016 -1.0
outer loop
vertex 77.0661161941732 29.2736613858964 2.15170052662908
vertex 82.533571 43.4972345070426 2.15170052662909
vertex 79.473849 14.3859295070427 2.15170052662909
endloop
endfacet
facet normal 4.65997553038029e-032 2.39008290349758e-016 -1.0
outer loop
vertex 79.473849 14.3859295070427 2.15170052662909
vertex 82.533571 43.4972345070426 2.15170052662909
vertex 85.159148 18.5165405070427 2.15170052662908
endloop
endfacet
facet normal 4.65997553038029e-032 2.39008290349758e-016 -1.0
outer loop
vertex 79.473849 14.3859295070427 2.15170052662909
vertex 85.159148 18.5165405070427 2.15170052662908
vertex 86.347699 17.4463645070427 2.15170052662908
endloop
endfacet
facet normal 4.65997553038029e-032 2.39008290349758e-016 -1.0
outer loop
vertex 85.159148 18.5165405070427 2.15170052662908
vertex 82.533571 43.4972345070426 2.15170052662909
vertex 83.473647 44.7911385070426 2.15170052662909
endloop
endfacet
facet normal 4.65997553038029e-032 2.39008290349758e-016 -1.0
outer loop
vertex 65.726151 14.3859295070427 2.15170052662909
vertex 68.1434055592915 29.2013364878571 2.15170052662908
vertex 72.6 11.3254945070427 2.15170052662908
endloop
endfacet
facet normal 4.65997553038029e-032 2.39008290349758e-016 -1.0
outer loop
vertex 68.1434055592915 29.2013364878571 2.15170052662908
vertex 65.726151 14.3859295070427 2.15170052662909
vertex 68.1338838058268 30.3760336281889 2.15170052662908
endloop
endfacet
facet normal 4.65997553038029e-032 2.39008290349758e-016 -1.0
outer loop
vertex 72.6 11.3254945070427 2.15170052662908
vertex 68.1434055592915 29.2013364878571 2.15170052662908
vertex 68.4566368590198 28.0691305930822 2.15170052662908
endloop
endfacet
facet normal 4.65997553038029e-032 2.39008290349758e-016 -1.0
outer loop
vertex 72.6 11.3254945070427 2.15170052662908
vertex 68.4566368590198 28.0691305930822 2.15170052662908
vertex 69.0522315095747 27.0565739045342 2.15170052662908
endloop
endfacet
facet normal 4.65997553038029e-032 2.39008290349758e-016 -1.0
outer loop
vertex 72.6 11.3254945070427 2.15170052662908
vertex 69.0522315095747 27.0565739045342 2.15170052662908
vertex 69.8896007197873 26.2326704872088 2.15170052662907
endloop
endfacet
facet normal 4.65997553038029e-032 2.39008290349758e-016 -1.0
outer loop
vertex 72.6 11.3254945070427 2.15170052662908
vertex 69.8896007197873 26.2326704872088 2.15170052662907
vertex 70.9116791617999 25.6535679974318 2.15170052662907
endloop
endfacet
facet normal 4.65997553038029e-032 2.39008290349758e-016 -1.0
outer loop
vertex 72.6 11.3254945070427 2.15170052662908
vertex 70.9116791617999 25.6535679974318 2.15170052662907
vertex 72.0488138788537 25.3587313128695 2.15170052662907
endloop
endfacet
facet normal 4.65997553038029e-032 2.39008290349758e-016 -1.0
outer loop
vertex 72.6 11.3254945070427 2.15170052662908
vertex 72.0488138788537 25.3587313128695 2.15170052662907
vertex 72.6 12.9248475070427 2.15170052662906
endloop
endfacet
facet normal 4.65997553038029e-032 2.39008290349758e-016 -1.0
outer loop
vertex 69.086292 46.3555415070426 2.15170052662908
vertex 62.666429 43.4972345070426 2.15170052662909
vertex 61.726353 44.7911385070426 2.15170052662909
endloop
endfacet
facet normal 4.65997553038029e-032 2.39008290349758e-016 -1.0
outer loop
vertex 62.666429 43.4972345070426 2.15170052662909
vertex 69.086292 46.3555415070426 2.15170052662908
vertex 65.075635 12.9248475070427 2.15170052662906
endloop
endfacet
facet normal 4.65997553038029e-032 2.39008290349758e-016 -1.0
outer loop
vertex 65.075635 12.9248475070427 2.15170052662906
vertex 69.086292 46.3555415070426 2.15170052662908
vertex 65.726151 14.3859295070427 2.15170052662909
endloop
endfacet
facet normal 4.65997553038029e-032 2.39008290349758e-016 -1.0
outer loop
vertex 65.726151 14.3859295070427 2.15170052662909
vertex 69.086292 46.3555415070426 2.15170052662908
vertex 68.1338838058268 30.3760336281889 2.15170052662908
endloop
endfacet
facet normal 4.65997553038029e-032 2.39008290349758e-016 -1.0
outer loop
vertex 68.1338838058268 30.3760336281889 2.15170052662908
vertex 69.086292 46.3555415070426 2.15170052662908
vertex 68.4287204903891 31.5131683452427 2.15170052662908
endloop
endfacet
facet normal 4.65997553038029e-032 2.39008290349758e-016 -1.0
outer loop
vertex 68.4287204903891 31.5131683452427 2.15170052662908
vertex 69.086292 46.3555415070426 2.15170052662908
vertex 69.0078229801661 32.5352467872553 2.15170052662908
endloop
endfacet
facet normal 4.65997553038029e-032 2.39008290349758e-016 -1.0
outer loop
vertex 69.0078229801661 32.5352467872553 2.15170052662908
vertex 69.086292 46.3555415070426 2.15170052662908
vertex 69.8317263974915 33.372615997468 2.15170052662908
endloop
endfacet
facet normal 4.65997553038029e-032 2.39008290349758e-016 -1.0
outer loop
vertex 62.666429 43.4972345070426 2.15170052662909
vertex 57.964171 38.2748475070426 2.15170052662909
vertex 56.57909 39.0745245070426 2.15170052662908
endloop
endfacet
facet normal 4.65997553038029e-032 2.39008290349758e-016 -1.0
outer loop
vertex 57.964171 38.2748475070426 2.15170052662909
vertex 62.666429 43.4972345070426 2.15170052662909
vertex 58.852301 17.4463645070427 2.15170052662908
endloop
endfacet
facet normal 4.65997553038029e-032 2.39008290349758e-016 -1.0
outer loop
vertex 58.852301 17.4463645070427 2.15170052662908
vertex 62.666429 43.4972345070426 2.15170052662909
vertex 60.040852 18.5165405070427 2.15170052662908
endloop
endfacet
facet normal 4.65997553038029e-032 2.39008290349758e-016 -1.0
outer loop
vertex 60.040852 18.5165405070427 2.15170052662908
vertex 62.666429 43.4972345070426 2.15170052662909
vertex 65.075635 12.9248475070427 2.15170052662906
endloop
endfacet
facet normal 4.65997553038029e-032 2.39008290349758e-016 -1.0
outer loop
vertex 57.964171 38.2748475070426 2.15170052662909
vertex 55.79258 31.5913785070427 2.15170052662908
vertex 54.201988 31.7585565070426 2.15170052662908
endloop
endfacet
facet normal 4.65997553038029e-032 2.39008290349758e-016 -1.0
outer loop
vertex 55.79258 31.5913785070427 2.15170052662908
vertex 57.964171 38.2748475070426 2.15170052662909
vertex 56.527145 24.6024605070426 2.15170052662907
endloop
endfacet
facet normal 4.65997553038029e-032 2.39008290349758e-016 -1.0
outer loop
vertex 56.527145 24.6024605070426 2.15170052662907
vertex 57.964171 38.2748475070426 2.15170052662909
vertex 58.852301 17.4463645070427 2.15170052662908
endloop
endfacet
facet normal 4.65997553038029e-032 2.39008290349758e-016 -1.0
outer loop
vertex 56.527145 24.6024605070426 2.15170052662907
vertex 55.00607 24.1082335070427 2.15170052662907
vertex 55.79258 31.5913785070427 2.15170052662908
endloop
endfacet
facet normal -0.978147643369747 -0.207911490231327 5.57903565795875e-017
outer loop
vertex 69.086292 46.3555415070426 2.15170052662908
vertex 68.753768 47.9199455070426 9.15170052662909
vertex 68.753768 47.9199455070427 2.15170052662906
endloop
endfacet
facet normal -0.978147643369747 -0.207911490231327 5.57903565795875e-017
outer loop
vertex 68.753768 47.9199455070426 9.15170052662909
vertex 69.086292 46.3555415070426 2.15170052662908
vertex 69.086292 46.3555415070427 9.1517005266291
endloop
endfacet
facet normal -0.978147643369741 0.207911490231354 -5.57903565795802e-017
outer loop
vertex 76.113708 46.3555415070426 2.15170052662908
vertex 76.446232 47.9199455070426 9.15170052662909
vertex 76.446232 47.9199455070427 2.15170052662906
endloop
endfacet
facet normal -0.978147643369741 0.207911490231354 -5.57903565795802e-017
outer loop
vertex 76.446232 47.9199455070426 9.15170052662909
vertex 76.113708 46.3555415070426 2.15170052662908
vertex 76.113708 46.3555415070427 9.1517005266291
endloop
endfacet
facet normal 0.207911749246515 0.978147588314389 -2.69512055482633e-016
outer loop
vertex 76.113708 46.3555415070426 2.15170052662908
vertex 68.753768 47.9199455070426 9.15170052662909
vertex 76.113708 46.3555415070427 9.1517005266291
endloop
endfacet
facet normal 0.207911749246515 0.978147588314389 -2.69512055482633e-016
outer loop
vertex 68.753768 47.9199455070426 9.15170052662909
vertex 76.113708 46.3555415070426 2.15170052662908
vertex 68.753768 47.9199455070427 2.15170052662906
endloop
endfacet
facet normal -0.809017078564469 0.587785136415521 -1.10392870186752e-015
outer loop
vertex 83.473647 44.7911385070426 2.15170052662909
vertex 82.533571 43.4972345070427 9.15170052662909
vertex 83.473647 44.7911385070427 9.15170052662909
endloop
endfacet
facet normal -0.809017078564469 0.587785136415521 -1.10392870186752e-015
outer loop
vertex 82.533571 43.4972345070427 9.15170052662909
vertex 83.473647 44.7911385070426 2.15170052662909
vertex 82.533571 43.4972345070426 2.15170052662909
endloop
endfacet
facet normal -0.130727639635396 0.991418319497556 3.64605366269328e-016
outer loop
vertex 77.3928030338346 23.4534767325121 4.1517005266291
vertex 69.4614564778542 22.4076556154289 9.1517005266291
vertex 77.3928030338346 23.4534767325121 9.1517005266291
endloop
endfacet
facet normal -0.130727639635396 0.991418319497556 3.64605366269328e-016
outer loop
vertex 69.4614564778542 22.4076556154289 9.1517005266291
vertex 77.3928030338346 23.4534767325121 4.1517005266291
vertex 69.4614564778542 22.4076556154289 4.1517005266291
endloop
endfacet
facet normal -0.866025367124469 0.500000063496925 -3.25719522821851e-016
outer loop
vertex 57.964171 38.2748475070426 2.15170052662909
vertex 54.201988 31.7585565070427 9.15170052662908
vertex 57.964171 38.2748475070427 9.15170052662909
endloop
endfacet
facet normal -0.866025367124469 0.500000063496925 -3.25719522821851e-016
outer loop
vertex 54.201988 31.7585565070427 9.15170052662908
vertex 57.964171 38.2748475070426 2.15170052662909
vertex 54.201988 31.7585565070426 2.15170052662908
endloop
endfacet
facet normal 0.913545368891012 -0.406736842415073 1.09620075174325e-016
outer loop
vertex 65.075635 12.9248475070427 9.15170052662907
vertex 65.726151 14.3859295070427 2.15170052662909
vertex 65.726151 14.3859295070427 9.15170052662906
endloop
endfacet
facet normal 0.913545368891012 -0.406736842415073 1.09620075174325e-016
outer loop
vertex 65.726151 14.3859295070427 2.15170052662909
vertex 65.075635 12.9248475070427 9.15170052662907
vertex 65.075635 12.9248475070427 2.15170052662906
endloop
endfacet
facet normal -0.104528490614417 0.994521892494012 1.29851282757577e-016
outer loop
vertex 90.9980120000001 31.7585565070426 2.15170052662908
vertex 89.4074200000001 31.5913785070426 9.15170052662907
vertex 90.9980120000001 31.7585565070427 9.15170052662908
endloop
endfacet
facet normal -0.104528490614417 0.994521892494012 1.29851282757577e-016
outer loop
vertex 89.4074200000001 31.5913785070426 9.15170052662907
vertex 90.9980120000001 31.7585565070426 2.15170052662908
vertex 89.4074200000001 31.5913785070427 2.15170052662908
endloop
endfacet
facet normal 0.743144891013784 -0.669130533573317 -1.57374452371503e-015
outer loop
vertex 90.19393 24.1082335070426 9.15170052662907
vertex 85.159148 18.5165405070427 2.15170052662908
vertex 90.19393 24.1082335070427 2.15170052662907
endloop
endfacet
facet normal 0.743144891013784 -0.669130533573317 -1.57374452371503e-015
outer loop
vertex 85.159148 18.5165405070427 2.15170052662908
vertex 90.19393 24.1082335070426 9.15170052662907
vertex 85.159148 18.5165405070426 9.15170052662908
endloop
endfacet
facet normal 0.309016866025583 0.951056557998381 5.05694715007718e-016
outer loop
vertex 90.19393 24.1082335070426 9.15170052662907
vertex 88.6728550000001 24.6024605070426 2.15170052662907
vertex 88.6728550000001 24.6024605070427 9.15170052662908
endloop
endfacet
facet normal 0.309016866025583 0.951056557998381 5.05694715007718e-016
outer loop
vertex 88.6728550000001 24.6024605070426 2.15170052662907
vertex 90.19393 24.1082335070426 9.15170052662907
vertex 90.19393 24.1082335070427 2.15170052662907
endloop
endfacet
facet normal 0.309016866025581 -0.951056557998381 -5.05694715007718e-016
outer loop
vertex 55.00607 24.1082335070426 9.15170052662907
vertex 56.527145 24.6024605070426 2.15170052662907
vertex 56.527145 24.6024605070427 9.15170052662908
endloop
endfacet
facet normal 0.309016866025581 -0.951056557998381 -5.05694715007718e-016
outer loop
vertex 56.527145 24.6024605070426 2.15170052662907
vertex 55.00607 24.1082335070426 9.15170052662907
vertex 55.00607 24.1082335070427 2.15170052662907
endloop
endfacet
facet normal 0.406736621058268 -0.913545467445438 -2.14135432453465e-015
outer loop
vertex 79.473849 14.3859295070427 9.15170052662906
vertex 86.347699 17.4463645070427 2.15170052662908
vertex 86.347699 17.4463645070426 9.15170052662907
endloop
endfacet
facet normal 0.406736621058268 -0.913545467445438 -2.14135432453465e-015
outer loop
vertex 86.347699 17.4463645070427 2.15170052662908
vertex 79.473849 14.3859295070427 9.15170052662906
vertex 79.473849 14.3859295070427 2.15170052662909
endloop
endfacet
facet normal -0.99452189858195 0.104528432691561 9.74082912134187e-017
outer loop
vertex 55.00607 24.1082335070427 2.15170052662907
vertex 55.79258 31.5913785070426 9.15170052662907
vertex 55.79258 31.5913785070427 2.15170052662908
endloop
endfacet
facet normal -0.99452189858195 0.104528432691561 9.74082912134187e-017
outer loop
vertex 55.79258 31.5913785070426 9.15170052662907
vertex 55.00607 24.1082335070427 2.15170052662907
vertex 55.00607 24.1082335070426 9.15170052662907
endloop
endfacet
facet normal 0.587785281355483 0.809016973259434 1.07814661274984e-015
outer loop
vertex 82.533571 43.4972345070426 2.15170052662909
vertex 76.446232 47.9199455070426 9.15170052662909
vertex 82.533571 43.4972345070427 9.15170052662909
endloop
endfacet
facet normal 0.587785281355483 0.809016973259434 1.07814661274984e-015
outer loop
vertex 76.446232 47.9199455070426 9.15170052662909
vertex 82.533571 43.4972345070426 2.15170052662909
vertex 76.446232 47.9199455070427 2.15170052662906
endloop
endfacet
facet normal 0.669130562417351 0.743144865042503 3.08738104074827e-015
outer loop
vertex 86.347699 17.4463645070426 9.15170052662907
vertex 85.159148 18.5165405070427 2.15170052662908
vertex 85.159148 18.5165405070426 9.15170052662908
endloop
endfacet
facet normal 0.669130562417351 0.743144865042503 3.08738104074827e-015
outer loop
vertex 85.159148 18.5165405070427 2.15170052662908
vertex 86.347699 17.4463645070426 9.15170052662907
vertex 86.347699 17.4463645070427 2.15170052662908
endloop
endfacet
facet normal -0.207911649117879 0.978147609597388 -3.39377863360162e-015
outer loop
vertex 69.086292 46.3555415070426 2.15170052662908
vertex 61.726353 44.7911385070427 9.15170052662909
vertex 69.086292 46.3555415070427 9.1517005266291
endloop
endfacet
facet normal -0.207911649117879 0.978147609597388 -3.39377863360162e-015
outer loop
vertex 61.726353 44.7911385070427 9.15170052662909
vertex 69.086292 46.3555415070426 2.15170052662908
vertex 61.726353 44.7911385070426 2.15170052662909
endloop
endfacet
facet normal 0.951056498270826 -0.309017049848118 7.2673955730673e-017
outer loop
vertex 88.6728550000001 24.6024605070427 9.15170052662908
vertex 90.9980120000001 31.7585565070426 2.15170052662908
vertex 90.9980120000001 31.7585565070427 9.15170052662908
endloop
endfacet
facet normal 0.951056498270826 -0.309017049848118 7.2673955730673e-017
outer loop
vertex 90.9980120000001 31.7585565070426 2.15170052662908
vertex 88.6728550000001 24.6024605070427 9.15170052662908
vertex 88.6728550000001 24.6024605070426 2.15170052662907
endloop
endfacet
facet normal 0.994521900034058 0.104528418875669 5.40412471733025e-017
outer loop
vertex 89.4074200000001 31.5913785070426 9.15170052662907
vertex 88.6209100000001 39.0745245070426 2.15170052662908
vertex 88.6209100000001 39.0745245070426 9.15170052662908
endloop
endfacet
facet normal 0.994521900034058 0.104528418875669 5.40412471733025e-017
outer loop
vertex 88.6209100000001 39.0745245070426 2.15170052662908
vertex 89.4074200000001 31.5913785070426 9.15170052662907
vertex 89.4074200000001 31.5913785070427 2.15170052662908
endloop
endfacet
facet normal -0.809017078564469 -0.587785136415521 1.10392870186752e-015
outer loop
vertex 61.726353 44.7911385070426 2.15170052662909
vertex 62.666429 43.4972345070427 9.15170052662909
vertex 61.726353 44.7911385070427 9.15170052662909
endloop
endfacet
facet normal -0.809017078564469 -0.587785136415521 1.10392870186752e-015
outer loop
vertex 62.666429 43.4972345070427 9.15170052662909
vertex 61.726353 44.7911385070426 2.15170052662909
vertex 62.666429 43.4972345070426 2.15170052662909
endloop
endfacet
facet normal -0.587785194370263 0.809017036457893 -1.91396947700025e-016
outer loop
vertex 62.666429 43.4972345070426 2.15170052662909
vertex 56.57909 39.0745245070426 9.15170052662908
vertex 62.666429 43.4972345070427 9.15170052662909
endloop
endfacet
facet normal -0.587785194370263 0.809017036457893 -1.91396947700025e-016
outer loop
vertex 56.57909 39.0745245070426 9.15170052662908
vertex 62.666429 43.4972345070426 2.15170052662909
vertex 56.57909 39.0745245070426 2.15170052662908
endloop
endfacet
facet normal 0.866025424672542 0.499999963820742 -9.6152830119203e-016
outer loop
vertex 87.2358290000001 38.2748475070427 9.15170052662909
vertex 83.473647 44.7911385070426 2.15170052662909
vertex 83.473647 44.7911385070427 9.15170052662909
endloop
endfacet
facet normal 0.866025424672542 0.499999963820742 -9.6152830119203e-016
outer loop
vertex 83.473647 44.7911385070426 2.15170052662909
vertex 87.2358290000001 38.2748475070427 9.15170052662909
vertex 87.2358290000001 38.2748475070426 2.15170052662909
endloop
endfacet
facet normal -0.104528490614415 -0.994521892494012 -1.29851282757577e-016
outer loop
vertex 54.201988 31.7585565070426 2.15170052662908
vertex 55.79258 31.5913785070426 9.15170052662907
vertex 54.201988 31.7585565070427 9.15170052662908
endloop
endfacet
facet normal -0.104528490614415 -0.994521892494012 -1.29851282757577e-016
outer loop
vertex 55.79258 31.5913785070426 9.15170052662907
vertex 54.201988 31.7585565070426 2.15170052662908
vertex 55.79258 31.5913785070427 2.15170052662908
endloop
endfacet
facet normal 0.669130562417358 -0.743144865042496 -3.09162445175924e-015
outer loop
vertex 58.852301 17.4463645070426 9.15170052662907
vertex 60.040852 18.5165405070427 2.15170052662908
vertex 60.040852 18.5165405070426 9.15170052662908
endloop
endfacet
facet normal 0.669130562417358 -0.743144865042496 -3.09162445175924e-015
outer loop
vertex 60.040852 18.5165405070427 2.15170052662908
vertex 58.852301 17.4463645070426 9.15170052662907
vertex 58.852301 17.4463645070427 2.15170052662908
endloop
endfacet
facet normal 3.41942357632817e-031 -7.49217613464428e-016 1.0
outer loop
vertex 56.527145 24.6024605070427 9.15170052662908
vertex 55.79258 31.5913785070426 9.15170052662907
vertex 55.00607 24.1082335070426 9.15170052662907
endloop
endfacet
facet normal 3.41942357632817e-031 -7.49217613464428e-016 1.0
outer loop
vertex 55.79258 31.5913785070426 9.15170052662907
vertex 57.964171 38.2748475070427 9.15170052662909
vertex 54.201988 31.7585565070427 9.15170052662908
endloop
endfacet
facet normal 3.41942357632817e-031 -7.49217613464428e-016 1.0
outer loop
vertex 57.964171 38.2748475070427 9.15170052662909
vertex 55.79258 31.5913785070426 9.15170052662907
vertex 56.527145 24.6024605070427 9.15170052662908
endloop
endfacet
facet normal 3.41942357632817e-031 -7.49217613464428e-016 1.0
outer loop
vertex 57.964171 38.2748475070427 9.15170052662909
vertex 56.527145 24.6024605070427 9.15170052662908
vertex 58.852301 17.4463645070426 9.15170052662907
endloop
endfacet
facet normal 3.41942357632817e-031 -7.49217613464428e-016 1.0
outer loop
vertex 62.666429 43.4972345070427 9.15170052662909
vertex 69.086292 46.3555415070427 9.1517005266291
vertex 61.726353 44.7911385070427 9.15170052662909
endloop
endfacet
facet normal 3.41942357632817e-031 -7.49217613464428e-016 1.0
outer loop
vertex 69.086292 46.3555415070427 9.1517005266291
vertex 62.666429 43.4972345070427 9.15170052662909
vertex 64.5900755446557 28.7534926605846 9.1517005266291
endloop
endfacet
facet normal 3.41942357632817e-031 -7.49217613464428e-016 1.0
outer loop
vertex 69.086292 46.3555415070427 9.1517005266291
vertex 64.5900755446557 28.7534926605846 9.1517005266291
vertex 67.6500411674377 36.1451508228235 9.1517005266291
endloop
endfacet
facet normal 3.41942357632817e-031 -7.49217613464428e-016 1.0
outer loop
vertex 69.086292 46.3555415070427 9.1517005266291
vertex 67.6500411674377 36.1451508228235 9.1517005266291
vertex 75.5813877234181 37.1909719399066 9.1517005266291
endloop
endfacet
facet normal 3.41942357632817e-031 -7.49217613464428e-016 1.0
outer loop
vertex 57.964171 38.2748475070427 9.15170052662909
vertex 62.666429 43.4972345070427 9.15170052662909
vertex 56.57909 39.0745245070426 9.15170052662908
endloop
endfacet
facet normal 3.41942357632817e-031 -7.49217613464428e-016 1.0
outer loop
vertex 62.666429 43.4972345070427 9.15170052662909
vertex 57.964171 38.2748475070427 9.15170052662909
vertex 58.852301 17.4463645070426 9.15170052662907
endloop
endfacet
facet normal 3.41942357632817e-031 -7.49217613464428e-016 1.0
outer loop
vertex 62.666429 43.4972345070427 9.15170052662909
vertex 58.852301 17.4463645070426 9.15170052662907
vertex 60.040852 18.5165405070426 9.15170052662908
endloop
endfacet
facet normal 3.41942357632817e-031 -7.49217613464428e-016 1.0
outer loop
vertex 62.666429 43.4972345070427 9.15170052662909
vertex 60.040852 18.5165405070426 9.15170052662908
vertex 65.075635 12.9248475070427 9.15170052662907
endloop
endfacet
facet normal 3.41942357632817e-031 -7.49217613464428e-016 1.0
outer loop
vertex 62.666429 43.4972345070427 9.15170052662909
vertex 65.075635 12.9248475070427 9.15170052662907
vertex 64.5900755446557 28.7534926605846 9.1517005266291
endloop
endfacet
facet normal 3.41942357632817e-031 -7.49217613464428e-016 1.0
outer loop
vertex 64.5900755446557 28.7534926605846 9.1517005266291
vertex 65.075635 12.9248475070427 9.15170052662907
vertex 65.726151 14.3859295070427 9.15170052662906
endloop
endfacet
facet normal 3.41942357632817e-031 -7.49217613464428e-016 1.0
outer loop
vertex 64.5900755446557 28.7534926605846 9.1517005266291
vertex 65.726151 14.3859295070427 9.15170052662906
vertex 69.4614564778542 22.4076556154289 9.1517005266291
endloop
endfacet
facet normal 3.41942357632817e-031 -7.49217613464428e-016 1.0
outer loop
vertex 69.4614564778542 22.4076556154289 9.1517005266291
vertex 65.726151 14.3859295070427 9.15170052662906
vertex 72.6 11.3254945070427 9.15170052662907
endloop
endfacet
facet normal 3.41942357632817e-031 -7.49217613464428e-016 1.0
outer loop
vertex 69.4614564778542 22.4076556154289 9.1517005266291
vertex 72.6 11.3254945070427 9.15170052662907
vertex 72.6 12.9248475070427 9.15170052662907
endloop
endfacet
facet normal 3.41942357632817e-031 -7.49217613464428e-016 1.0
outer loop
vertex 69.4614564778542 22.4076556154289 9.1517005266291
vertex 72.6 12.9248475070427 9.15170052662907
vertex 77.3928030338346 23.4534767325121 9.1517005266291
endloop
endfacet
facet normal 3.41942357632817e-031 -7.49217613464428e-016 1.0
outer loop
vertex 77.3928030338346 23.4534767325121 9.1517005266291
vertex 72.6 12.9248475070427 9.15170052662907
vertex 79.473849 14.3859295070427 9.15170052662906
endloop
endfacet
facet normal 3.41942357632817e-031 -7.49217613464428e-016 1.0
outer loop
vertex 79.473849 14.3859295070427 9.15170052662906
vertex 72.6 12.9248475070427 9.15170052662907
vertex 80.124365 12.9248475070427 9.15170052662907
endloop
endfacet
facet normal 3.41942357632817e-031 -7.49217613464428e-016 1.0
outer loop
vertex 79.473849 14.3859295070427 9.15170052662906
vertex 80.4527686566166 30.845134894751 9.1517005266291
vertex 77.3928030338346 23.4534767325121 9.1517005266291
endloop
endfacet
facet normal 3.41942357632817e-031 -7.49217613464428e-016 1.0
outer loop
vertex 80.4527686566166 30.845134894751 9.1517005266291
vertex 79.473849 14.3859295070427 9.15170052662906
vertex 85.159148 18.5165405070426 9.15170052662908
endloop
endfacet
facet normal 3.41942357632817e-031 -7.49217613464428e-016 1.0
outer loop
vertex 85.159148 18.5165405070426 9.15170052662908
vertex 79.473849 14.3859295070427 9.15170052662906
vertex 86.347699 17.4463645070426 9.15170052662907
endloop
endfacet
facet normal 3.41942357632817e-031 -7.49217613464428e-016 1.0
outer loop
vertex 80.4527686566166 30.845134894751 9.1517005266291
vertex 85.159148 18.5165405070426 9.15170052662908
vertex 82.533571 43.4972345070427 9.15170052662909
endloop
endfacet
facet normal 3.41942357632817e-031 -7.49217613464428e-016 1.0
outer loop
vertex 82.533571 43.4972345070427 9.15170052662909
vertex 85.159148 18.5165405070426 9.15170052662908
vertex 83.473647 44.7911385070427 9.15170052662909
endloop
endfacet
facet normal 3.41942357632817e-031 -7.49217613464428e-016 1.0
outer loop
vertex 85.159148 18.5165405070426 9.15170052662908
vertex 87.2358290000001 38.2748475070427 9.15170052662909
vertex 83.473647 44.7911385070427 9.15170052662909
endloop
endfacet
facet normal 3.41942357632817e-031 -7.49217613464428e-016 1.0
outer loop
vertex 87.2358290000001 38.2748475070427 9.15170052662909
vertex 85.159148 18.5165405070426 9.15170052662908
vertex 88.6728550000001 24.6024605070427 9.15170052662908
endloop
endfacet
facet normal 3.41942357632817e-031 -7.49217613464428e-016 1.0
outer loop
vertex 88.6728550000001 24.6024605070427 9.15170052662908
vertex 85.159148 18.5165405070426 9.15170052662908
vertex 90.19393 24.1082335070426 9.15170052662907
endloop
endfacet
facet normal 3.41942357632817e-031 -7.49217613464428e-016 1.0
outer loop
vertex 87.2358290000001 38.2748475070427 9.15170052662909
vertex 88.6728550000001 24.6024605070427 9.15170052662908
vertex 88.6209100000001 39.0745245070426 9.15170052662908
endloop
endfacet
facet normal 3.41942357632817e-031 -7.49217613464428e-016 1.0
outer loop
vertex 88.6728550000001 24.6024605070427 9.15170052662908
vertex 89.4074200000001 31.5913785070426 9.15170052662907
vertex 88.6209100000001 39.0745245070426 9.15170052662908
endloop
endfacet
facet normal 3.41942357632817e-031 -7.49217613464428e-016 1.0
outer loop
vertex 89.4074200000001 31.5913785070426 9.15170052662907
vertex 88.6728550000001 24.6024605070427 9.15170052662908
vertex 90.9980120000001 31.7585565070427 9.15170052662908
endloop
endfacet
facet normal 3.41942357632817e-031 -7.49217613464428e-016 1.0
outer loop
vertex 69.086292 46.3555415070427 9.1517005266291
vertex 76.113708 46.3555415070427 9.1517005266291
vertex 68.753768 47.9199455070426 9.15170052662909
endloop
endfacet
facet normal 3.41942357632817e-031 -7.49217613464428e-016 1.0
outer loop
vertex 76.113708 46.3555415070427 9.1517005266291
vertex 69.086292 46.3555415070427 9.1517005266291
vertex 75.5813877234181 37.1909719399066 9.1517005266291
endloop
endfacet
facet normal 3.41942357632817e-031 -7.49217613464428e-016 1.0
outer loop
vertex 76.113708 46.3555415070427 9.1517005266291
vertex 75.5813877234181 37.1909719399066 9.1517005266291
vertex 80.4527686566166 30.845134894751 9.1517005266291
endloop
endfacet
facet normal 3.41942357632817e-031 -7.49217613464428e-016 1.0
outer loop
vertex 76.113708 46.3555415070427 9.1517005266291
vertex 80.4527686566166 30.845134894751 9.1517005266291
vertex 76.446232 47.9199455070426 9.15170052662909
endloop
endfacet
facet normal 3.41942357632817e-031 -7.49217613464428e-016 1.0
outer loop
vertex 76.446232 47.9199455070426 9.15170052662909
vertex 80.4527686566166 30.845134894751 9.1517005266291
vertex 82.533571 43.4972345070427 9.15170052662909
endloop
endfacet
facet normal 1.0 0.0 0.0
outer loop
vertex 72.6 11.3254945070427 9.15170052662907
vertex 72.6 12.9248475070427 2.15170052662906
vertex 72.6 12.9248475070427 9.15170052662907
endloop
endfacet
facet normal 1.0 0.0 0.0
outer loop
vertex 72.6 12.9248475070427 2.15170052662906
vertex 72.6 11.3254945070427 9.15170052662907
vertex 72.6 11.3254945070427 2.15170052662908
endloop
endfacet
facet normal -0.500000052427688 -0.866025373515297 2.35621514615104e-016
outer loop
vertex 56.57909 39.0745245070426 9.15170052662908
vertex 57.964171 38.2748475070426 2.15170052662909
vertex 57.964171 38.2748475070427 9.15170052662909
endloop
endfacet
facet normal -0.500000052427688 -0.866025373515297 2.35621514615104e-016
outer loop
vertex 57.964171 38.2748475070426 2.15170052662909
vertex 56.57909 39.0745245070426 9.15170052662908
vertex 56.57909 39.0745245070426 2.15170052662908
endloop
endfacet
facet normal 0.122485804699175 0.992470265371812 3.62070855994263e-016
outer loop
vertex 72.0488138788537 25.3587313128695 2.15170052662907
vertex 70.9116791617999 25.6535679974318 4.15170052662906
vertex 72.0488138788537 25.3587313128695 4.15170052662906
endloop
endfacet
facet normal 0.375182408488911 0.926951002135744 3.37890304067881e-016
outer loop
vertex 70.9116791617999 25.6535679974318 4.15170052662906
vertex 72.0488138788537 25.3587313128695 2.15170052662907
vertex 70.9116791617999 25.6535679974318 2.15170052662907
endloop
endfacet
facet normal 0.992470265371813 -0.122485804699172 -4.25705951131581e-017
outer loop
vertex 68.1338838058268 30.3760336281889 4.15170052662907
vertex 68.4287204903891 31.5131683452427 2.15170052662908
vertex 68.4287204903891 31.5131683452427 4.15170052662907
endloop
endfacet
facet normal 0.926951002135745 -0.375182408488908 -1.31797247974405e-016
outer loop
vertex 68.4287204903891 31.5131683452427 2.15170052662908
vertex 68.1338838058268 30.3760336281889 4.15170052662907
vertex 68.1338838058268 30.3760336281889 2.15170052662908
endloop
endfacet
facet normal 0.990354320157453 0.138558004263446 4.94765715573801e-017
outer loop
vertex 68.1434055592915 29.2013364878571 4.15170052662907
vertex 68.1338838058268 30.3760336281889 2.15170052662908
vertex 68.1338838058268 30.3760336281889 4.15170052662907
endloop
endfacet
facet normal 0.992470265371813 -0.122485804699171 -4.2570595113158e-017
outer loop
vertex 68.1338838058268 30.3760336281889 2.15170052662908
vertex 68.1434055592915 29.2013364878571 4.15170052662907
vertex 68.1434055592915 29.2013364878571 2.15170052662908
endloop
endfacet
facet normal 0.793229630644463 0.608922616649809 2.23938219928998e-016
outer loop
vertex 69.4614564778542 22.4076556154289 9.1517005266291
vertex 64.5900755446557 28.7534926605846 4.1517005266291
vertex 64.5900755446557 28.7534926605846 9.1517005266291
endloop
endfacet
facet normal 0.793229630644463 0.608922616649809 2.23938219928998e-016
outer loop
vertex 64.5900755446557 28.7534926605846 4.1517005266291
vertex 69.4614564778542 22.4076556154289 9.1517005266291
vertex 69.4614564778542 22.4076556154289 4.1517005266291
endloop
endfacet
facet normal -0.13855800426345 0.990354320157453 3.6429916587173e-016
outer loop
vertex 73.2235110191855 25.3682530663341 2.15170052662907
vertex 72.0488138788537 25.3587313128695 4.15170052662906
vertex 73.2235110191855 25.3682530663341 4.15170052662906
endloop
endfacet
facet normal 0.122485804699175 0.992470265371812 3.62070855994263e-016
outer loop
vertex 72.0488138788537 25.3587313128695 4.15170052662906
vertex 73.2235110191855 25.3682530663341 2.15170052662907
vertex 72.0488138788537 25.3587313128695 2.15170052662907
endloop
endfacet
facet normal 0.130727639635396 -0.991418319497556 -3.64605366269328e-016
outer loop
vertex 67.6500411674377 36.1451508228235 4.1517005266291
vertex 75.5813877234181 37.1909719399066 9.1517005266291
vertex 67.6500411674377 36.1451508228235 9.1517005266291
endloop
endfacet
facet normal 0.130727639635396 -0.991418319497556 -3.64605366269328e-016
outer loop
vertex 75.5813877234181 37.1909719399066 9.1517005266291
vertex 67.6500411674377 36.1451508228235 4.1517005266291
vertex 75.5813877234181 37.1909719399067 4.1517005266291
endloop
endfacet
facet normal 0.913545368891018 0.406736842415062 -1.09620075174321e-016
outer loop
vertex 80.124365 12.9248475070427 9.15170052662907
vertex 79.473849 14.3859295070427 2.15170052662909
vertex 79.473849 14.3859295070427 9.15170052662906
endloop
endfacet
facet normal 0.913545368891018 0.406736842415062 -1.09620075174321e-016
outer loop
vertex 79.473849 14.3859295070427 2.15170052662909
vertex 80.124365 12.9248475070427 9.15170052662907
vertex 80.124365 12.9248475070427 2.15170052662906
endloop
endfacet
facet normal 0.390159314213444 -0.920747364662259 -3.34347157334472e-016
outer loop
vertex 70.8442830860395 33.9682106480228 2.15170052662908
vertex 71.9764889808145 34.2814419477512 4.15170052662908
vertex 70.8442830860395 33.9682106480228 4.15170052662908
endloop
endfacet
facet normal 0.138558004263449 -0.990354320157453 -3.6438118509098e-016
outer loop
vertex 71.9764889808145 34.2814419477512 4.15170052662908
vertex 70.8442830860395 33.9682106480228 2.15170052662908
vertex 71.9764889808145 34.2814419477512 2.15170052662908
endloop
endfacet
facet normal -0.793229630644462 -0.608922616649809 -2.23938219928998e-016
outer loop
vertex 80.4527686566166 30.845134894751 4.1517005266291
vertex 75.5813877234181 37.1909719399066 9.1517005266291
vertex 75.5813877234181 37.1909719399067 4.1517005266291
endloop
endfacet
facet normal -0.793229630644462 -0.608922616649809 -2.23938219928998e-016
outer loop
vertex 75.5813877234181 37.1909719399066 9.1517005266291
vertex 80.4527686566166 30.845134894751 4.1517005266291
vertex 80.4527686566166 30.845134894751 9.1517005266291
endloop
endfacet
facet normal 0.375182408488911 0.926951002135744 3.37890304067881e-016
outer loop
vertex 70.9116791617999 25.6535679974318 2.15170052662907
vertex 69.8896007197873 26.2326704872088 4.15170052662906
vertex 70.9116791617999 25.6535679974318 4.15170052662906
endloop
endfacet
facet normal 0.602310951158368 0.798261559963088 2.96961712103561e-016
outer loop
vertex 69.8896007197873 26.2326704872088 4.15170052662906
vertex 70.9116791617999 25.6535679974318 2.15170052662907
vertex 69.8896007197873 26.2326704872088 2.15170052662907
endloop
endfacet
facet normal -0.990354320157452 -0.138558004263456 -5.68894923807948e-017
outer loop
vertex 77.0565944407085 30.4483585262282 2.15170052662908
vertex 76.7433631409802 31.5805644210032 4.15170052662907
vertex 76.7433631409802 31.5805644210032 2.15170052662908
endloop
endfacet
facet normal -0.920747364662259 -0.390159314213445 -1.49325497767545e-016
outer loop
vertex 76.7433631409802 31.5805644210032 4.15170052662907
vertex 77.0565944407085 30.4483585262282 2.15170052662908
vertex 77.0565944407085 30.4483585262282 4.15170052662907
endloop
endfacet
facet normal 0.615171911668546 -0.788392997872297 -2.78188627866452e-016
outer loop
vertex 69.8317263974915 33.372615997468 4.15170052662907
vertex 70.8442830860395 33.9682106480228 2.15170052662908
vertex 70.8442830860395 33.9682106480228 4.15170052662908
endloop
endfacet
facet normal 0.390159314213444 -0.920747364662259 -3.34347157334472e-016
outer loop
vertex 70.8442830860395 33.9682106480228 2.15170052662908
vertex 69.8317263974915 33.372615997468 4.15170052662907
vertex 69.8317263974915 33.372615997468 2.15170052662908
endloop
endfacet
facet normal 0.920747364662259 0.390159314213444 1.4207155230082e-016
outer loop
vertex 68.4566368590198 28.0691305930822 4.15170052662907
vertex 68.1434055592915 29.2013364878571 2.15170052662908
vertex 68.1434055592915 29.2013364878571 4.15170052662907
endloop
endfacet
facet normal 0.990354320157453 0.138558004263446 4.94765715573802e-017
outer loop
vertex 68.1434055592915 29.2013364878571 2.15170052662908
vertex 68.4566368590198 28.0691305930822 4.15170052662907
vertex 68.4566368590198 28.0691305930822 2.15170052662908
endloop
endfacet
facet normal -0.500000052427688 0.866025373515297 -2.35621514615104e-016
outer loop
vertex 88.6209100000001 39.0745245070426 9.15170052662908
vertex 87.2358290000001 38.2748475070426 2.15170052662909
vertex 87.2358290000001 38.2748475070427 9.15170052662909
endloop
endfacet
facet normal -0.500000052427688 0.866025373515297 -2.35621514615104e-016
outer loop
vertex 87.2358290000001 38.2748475070426 2.15170052662909
vertex 88.6209100000001 39.0745245070426 9.15170052662908
vertex 88.6209100000001 39.0745245070426 2.15170052662908
endloop
endfacet
facet normal -0.406736670440829 -0.913545445458904 -1.2523906807003e-015
outer loop
vertex 65.726151 14.3859295070427 9.15170052662906
vertex 72.6 11.3254945070427 2.15170052662908
vertex 72.6 11.3254945070427 9.15170052662907
endloop
endfacet
facet normal -0.406736670440829 -0.913545445458904 -1.2523906807003e-015
outer loop
vertex 72.6 11.3254945070427 2.15170052662908
vertex 65.726151 14.3859295070427 9.15170052662906
vertex 65.726151 14.3859295070427 2.15170052662909
endloop
endfacet
facet normal -0.951056537329623 -0.3090169296375 -7.16624807453293e-016
outer loop
vertex 56.527145 24.6024605070426 2.15170052662907
vertex 58.852301 17.4463645070426 9.15170052662907
vertex 56.527145 24.6024605070427 9.15170052662908
endloop
endfacet
facet normal -0.951056537329623 -0.3090169296375 -7.16624807453293e-016
outer loop
vertex 58.852301 17.4463645070426 9.15170052662907
vertex 56.527145 24.6024605070426 2.15170052662907
vertex 58.852301 17.4463645070427 2.15170052662908
endloop
endfacet
facet normal -0.743144824927017 -0.669130606970115 -1.0349054058058e-015
outer loop
vertex 65.075635 12.9248475070427 2.15170052662906
vertex 60.040852 18.5165405070426 9.15170052662908
vertex 60.040852 18.5165405070427 2.15170052662908
endloop
endfacet
facet normal -0.743144824927017 -0.669130606970115 -1.0349054058058e-015
outer loop
vertex 60.040852 18.5165405070426 9.15170052662908
vertex 65.075635 12.9248475070427 2.15170052662906
vertex 65.075635 12.9248475070427 9.15170052662907
endloop
endfacet
facet normal 0.0 -1.0 2.71409878698542e-016
outer loop
vertex 72.6 12.9248475070427 2.15170052662906
vertex 80.124365 12.9248475070427 9.15170052662907
vertex 72.6 12.9248475070427 9.15170052662907
endloop
endfacet
facet normal 0.0 -1.0 2.71409878698542e-016
outer loop
vertex 80.124365 12.9248475070427 9.15170052662907
vertex 72.6 12.9248475070427 2.15170052662906
vertex 80.124365 12.9248475070427 2.15170052662906
endloop
endfacet
facet normal -0.615171911668544 0.788392997872298 2.93129340401069e-016
outer loop
vertex 75.3682736025084 26.2770790166173 2.15170052662907
vertex 76.1921770198339 27.11444822683 4.15170052662906
vertex 76.1921770198339 27.11444822683 2.15170052662907
endloop
endfacet
facet normal -0.798261559963085 0.602310951158371 2.23361863525426e-016
outer loop
vertex 76.1921770198339 27.11444822683 4.15170052662906
vertex 75.3682736025084 26.2770790166173 2.15170052662907
vertex 75.3682736025084 26.2770790166173 4.15170052662906
endloop
endfacet
facet normal -0.602310951158369 -0.798261559963087 -2.96091129539164e-016
outer loop
vertex 75.3103992802126 33.4170245268765 2.15170052662908
vertex 76.1477684904253 32.5931211095511 4.15170052662907
vertex 75.3103992802126 33.4170245268765 4.15170052662907
endloop
endfacet
facet normal -0.788392997872296 -0.615171911668546 -2.24190587460696e-016
outer loop
vertex 76.1477684904253 32.5931211095511 4.15170052662907
vertex 75.3103992802126 33.4170245268765 2.15170052662908
vertex 76.1477684904253 32.5931211095511 2.15170052662908
endloop
endfacet
facet normal -0.122485804699172 -0.992470265371813 -3.66957099189453e-016
outer loop
vertex 73.1511861211463 34.2909637012158 2.15170052662908
vertex 74.2883208382001 33.9961270166535 4.15170052662907
vertex 73.1511861211463 34.2909637012158 4.15170052662908
endloop
endfacet
facet normal -0.375182408488909 -0.926951002135745 -3.47261768968042e-016
outer loop
vertex 74.2883208382001 33.9961270166535 4.15170052662907
vertex 73.1511861211463 34.2909637012158 2.15170052662908
vertex 74.2883208382001 33.9961270166535 2.15170052662908
endloop
endfacet
facet normal -0.798261559963085 0.602310951158372 2.23361863525426e-016
outer loop
vertex 76.1921770198339 27.11444822683 2.15170052662907
vertex 76.7712795096108 28.1365266688426 4.15170052662907
vertex 76.7712795096108 28.1365266688426 2.15170052662908
endloop
endfacet
facet normal -0.926951002135745 0.375182408488908 1.39832757938405e-016
outer loop
vertex 76.7712795096108 28.1365266688426 4.15170052662907
vertex 76.1921770198339 27.11444822683 2.15170052662907
vertex 76.1921770198339 27.11444822683 4.15170052662906
endloop
endfacet
facet normal 0.138558004263449 -0.990354320157453 -3.6438118509098e-016
outer loop
vertex 71.9764889808145 34.2814419477512 2.15170052662908
vertex 73.1511861211463 34.2909637012158 4.15170052662908
vertex 71.9764889808145 34.2814419477512 4.15170052662908
endloop
endfacet
facet normal -0.122485804699172 -0.992470265371813 -3.66957099189453e-016
outer loop
vertex 73.1511861211463 34.2909637012158 4.15170052662908
vertex 71.9764889808145 34.2814419477512 2.15170052662908
vertex 73.1511861211463 34.2909637012158 2.15170052662908
endloop
endfacet
facet normal -0.992470265371813 0.122485804699167 4.49523093956666e-017
outer loop
vertex 77.0661161941732 29.2736613858964 2.15170052662908
vertex 77.0565944407085 30.4483585262282 4.15170052662907
vertex 77.0565944407085 30.4483585262282 2.15170052662908
endloop
endfacet
facet normal -0.990354320157452 -0.138558004263456 -5.68894923807949e-017
outer loop
vertex 77.0565944407085 30.4483585262282 4.15170052662907
vertex 77.0661161941732 29.2736613858964 2.15170052662908
vertex 77.0661161941732 29.2736613858964 4.15170052662907
endloop
endfacet
facet normal 0.798261559963086 -0.60231095115837 -2.10383337902931e-016
outer loop
vertex 69.0078229801661 32.5352467872553 4.15170052662907
vertex 69.8317263974915 33.372615997468 2.15170052662908
vertex 69.8317263974915 33.372615997468 4.15170052662907
endloop
endfacet
facet normal 0.615171911668546 -0.788392997872297 -2.78188627866452e-016
outer loop
vertex 69.8317263974915 33.372615997468 2.15170052662908
vertex 69.0078229801661 32.5352467872553 4.15170052662907
vertex 69.0078229801661 32.5352467872553 2.15170052662908
endloop
endfacet
facet normal -0.37518240848891 -0.926951002135745 -3.47261768968042e-016
outer loop
vertex 74.2883208382001 33.9961270166535 2.15170052662908
vertex 75.3103992802126 33.4170245268765 4.15170052662907
vertex 74.2883208382001 33.9961270166535 4.15170052662907
endloop
endfacet
facet normal -0.602310951158369 -0.798261559963087 -2.96091129539164e-016
outer loop
vertex 75.3103992802126 33.4170245268765 4.15170052662907
vertex 74.2883208382001 33.9961270166535 2.15170052662908
vertex 75.3103992802126 33.4170245268765 2.15170052662908
endloop
endfacet
facet normal 0.788392997872294 0.615171911668549 2.29628410949329e-016
outer loop
vertex 69.0522315095747 27.0565739045342 4.15170052662907
vertex 68.4566368590198 28.0691305930822 2.15170052662908
vertex 68.4566368590198 28.0691305930822 4.15170052662907
endloop
endfacet
facet normal 0.920747364662259 0.390159314213444 1.4207155230082e-016
outer loop
vertex 68.4566368590198 28.0691305930822 2.15170052662908
vertex 69.0522315095747 27.0565739045342 4.15170052662907
vertex 69.0522315095747 27.0565739045342 2.15170052662908
endloop
endfacet
facet normal -0.390159314213445 0.920747364662258 3.4180416457141e-016
outer loop
vertex 74.3557169139605 25.6814843660625 2.15170052662907
vertex 73.2235110191855 25.3682530663341 4.15170052662906
vertex 74.3557169139605 25.6814843660625 4.15170052662906
endloop
endfacet
facet normal -0.13855800426345 0.990354320157453 3.6429916587173e-016
outer loop
vertex 73.2235110191855 25.3682530663341 4.15170052662906
vertex 74.3557169139605 25.6814843660625 2.15170052662907
vertex 73.2235110191855 25.3682530663341 2.15170052662907
endloop
endfacet
facet normal -0.923957270279859 0.382495702847747 1.4066714634033e-016
outer loop
vertex 77.3928030338346 23.4534767325121 4.1517005266291
vertex 80.4527686566166 30.845134894751 9.1517005266291
vertex 80.4527686566166 30.845134894751 4.1517005266291
endloop
endfacet
facet normal -0.923957270279859 0.382495702847747 1.4066714634033e-016
outer loop
vertex 80.4527686566166 30.845134894751 9.1517005266291
vertex 77.3928030338346 23.4534767325121 4.1517005266291
vertex 77.3928030338346 23.4534767325121 9.1517005266291
endloop
endfacet
facet normal -0.926951002135745 0.375182408488908 1.39832757938406e-016
outer loop
vertex 76.7712795096108 28.1365266688426 2.15170052662908
vertex 77.0661161941732 29.2736613858964 4.15170052662907
vertex 77.0661161941732 29.2736613858964 2.15170052662908
endloop
endfacet
facet normal -0.992470265371813 0.122485804699167 4.49523093956666e-017
outer loop
vertex 77.0661161941732 29.2736613858964 4.15170052662907
vertex 76.7712795096108 28.1365266688426 2.15170052662908
vertex 76.7712795096108 28.1365266688426 4.15170052662907
endloop
endfacet
facet normal 0.926951002135745 -0.375182408488908 -1.31797247974405e-016
outer loop
vertex 68.4287204903891 31.5131683452427 4.15170052662907
vertex 69.0078229801661 32.5352467872553 2.15170052662908
vertex 69.0078229801661 32.5352467872553 4.15170052662907
endloop
endfacet
facet normal 0.798261559963086 -0.60231095115837 -2.10383337902931e-016
outer loop
vertex 69.0078229801661 32.5352467872553 2.15170052662908
vertex 68.4287204903891 31.5131683452427 4.15170052662907
vertex 68.4287204903891 31.5131683452427 2.15170052662908
endloop
endfacet
facet normal -0.920747364662259 -0.390159314213445 -1.49325497767545e-016
outer loop
vertex 76.7433631409802 31.5805644210032 2.15170052662908
vertex 76.1477684904253 32.5931211095511 4.15170052662907
vertex 76.1477684904253 32.5931211095511 2.15170052662908
endloop
endfacet
facet normal -0.788392997872296 -0.615171911668546 -2.24190587460696e-016
outer loop
vertex 76.1477684904253 32.5931211095511 4.15170052662907
vertex 76.7433631409802 31.5805644210032 2.15170052662908
vertex 76.7433631409802 31.5805644210032 4.15170052662907
endloop
endfacet
facet normal 0.602310951158368 0.798261559963088 2.96961712103561e-016
outer loop
vertex 69.8896007197873 26.2326704872088 4.15170052662906
vertex 69.0522315095747 27.0565739045342 2.15170052662908
vertex 69.0522315095747 27.0565739045342 4.15170052662907
endloop
endfacet
facet normal 0.788392997872294 0.61517191166855 2.29628410949329e-016
outer loop
vertex 69.0522315095747 27.0565739045342 2.15170052662908
vertex 69.8896007197873 26.2326704872088 4.15170052662906
vertex 69.8896007197873 26.2326704872088 2.15170052662907
endloop
endfacet
facet normal -0.615171911668544 0.788392997872298 2.93129340401069e-016
outer loop
vertex 75.3682736025084 26.2770790166173 2.15170052662907
vertex 74.3557169139605 25.6814843660625 4.15170052662906
vertex 75.3682736025084 26.2770790166173 4.15170052662906
endloop
endfacet
facet normal -0.390159314213445 0.920747364662258 3.4180416457141e-016
outer loop
vertex 74.3557169139605 25.6814843660625 4.15170052662906
vertex 75.3682736025084 26.2770790166173 2.15170052662907
vertex 74.3557169139605 25.6814843660625 2.15170052662907
endloop
endfacet
endsolid hobber 3
